999
dxflib 2.2.0.0
  0
SECTION
  2
HEADER
  9
$ACADVER
  1
AC1015
  9
$HANDSEED
  5
FFFF
  9
$SPLINESEGS
 70
8
  9
$DIMALT
 70
1
  9
$DIMEXE
 40
0.05
  9
$DIMRND
 40
0.001
  9
$DIMLUNIT
 70
2
  9
$GRIDMODE
 70
0
  9
$INSUNITS
 70
1
  9
$DIMADEC
 70
1
  9
$DIMASZ
 40
0.1
  9
$DIMGAP
 40
0.05
  9
$DIMTXT
 40
0.1
  9
$GRIDUNIT
 10
0.0
 20
0.0
  9
$DIMEXO
 40
0.05
  9
$LUPREC
 70
3
  9
$PINSBASE
 10
0.0249999999999996
 20
0.33
 30
0.0
  9
$CLAYER
  8
Body
  9
$DIMAUNIT
 70
0
  9
$AUPREC
 70
1
  9
$PLIMMIN
 10
0.0
 20
0.0
  9
$LUNITS
 70
2
  9
$PLIMMAX
 10
11.0
 20
8.5
  9
$DIMSTYLE
  2
Standard
  9
$AUNITS
 70
0
  9
$CLAYER
  8
Body
  0
ENDSEC
  0
SECTION
  2
TABLES
  0
TABLE
  2
VPORT
  5
8
100
AcDbSymbolTable
 70
1
  0
VPORT
  5
30
100
AcDbSymbolTableRecord
100
AcDbViewportTableRecord
  2
*Active
 70
0
 10
0.0
 20
0.0
 11
1.0
 21
1.0
 12
286.3055555555554861
 22
148.5
 13
0.0
 23
0.0
 14
10.0
 24
10.0
 15
10.0
 25
10.0
 16
0.0
 26
0.0
 36
1.0
 17
0.0
 27
0.0
 37
0.0
 40
297.0
 41
1.92798353909465
 42
50.0
 43
0.0
 44
0.0
 50
0.0
 51
0.0
 71
0
 72
100
 73
1
 74
3
 75
1
 76
1
 77
0
 78
0
281
0
 65
1
110
0.0
120
0.0
130
0.0
111
1.0
121
0.0
131
0.0
112
0.0
122
1.0
132
0.0
 79
0
146
0.0
  0
ENDTAB
  0
TABLE
  2
LTYPE
  5
5
100
AcDbSymbolTable
 70
21
  0
LTYPE
  5
14
100
AcDbSymbolTableRecord
100
AcDbLinetypeTableRecord
  2
ByBlock
 70
0
  3

 72
65
 73
0
 40
0.0
  0
LTYPE
  5
15
100
AcDbSymbolTableRecord
100
AcDbLinetypeTableRecord
  2
ByLayer
 70
0
  3

 72
65
 73
0
 40
0.0
  0
LTYPE
  5
16
100
AcDbSymbolTableRecord
100
AcDbLinetypeTableRecord
  2
CONTINUOUS
 70
0
  3
Solid line
 72
65
 73
0
 40
0.0
  0
LTYPE
  5
31
100
AcDbSymbolTableRecord
100
AcDbLinetypeTableRecord
  2
DOT
 70
0
  3
Dot . . . . . . . . . . . . . . . . . . . . . .
 72
65
 73
2
 40
6.3499999999999996
 49
0.0
 74
0
 49
-6.3499999999999996
 74
0
  0
LTYPE
  5
32
100
AcDbSymbolTableRecord
100
AcDbLinetypeTableRecord
  2
DOT2
 70
0
  3
Dot (.5x) .....................................
 72
65
 73
2
 40
3.1749999999999998
 49
0.0
 74
0
 49
-3.1749999999999998
 74
0
  0
LTYPE
  5
33
100
AcDbSymbolTableRecord
100
AcDbLinetypeTableRecord
  2
DOTX2
 70
0
  3
Dot (2x) .  .  .  .  .  .  .  .  .  .  .  .  .
 72
65
 73
2
 40
12.6999999999999993
 49
0.0
 74
0
 49
-12.6999999999999993
 74
0
  0
LTYPE
  5
34
100
AcDbSymbolTableRecord
100
AcDbLinetypeTableRecord
  2
DASHED
 70
0
  3
Dashed __ __ __ __ __ __ __ __ __ __ __ __ __ _
 72
65
 73
2
 40
19.0500000000000007
 49
12.6999999999999993
 74
0
 49
-6.3499999999999996
 74
0
  0
LTYPE
  5
35
100
AcDbSymbolTableRecord
100
AcDbLinetypeTableRecord
  2
DASHED2
 70
0
  3
Dashed (.5x) _ _ _ _ _ _ _ _ _ _ _ _ _ _ _ _ _
 72
65
 73
2
 40
9.5250000000000004
 49
6.3499999999999996
 74
0
 49
-3.1749999999999998
 74
0
  0
LTYPE
  5
36
100
AcDbSymbolTableRecord
100
AcDbLinetypeTableRecord
  2
DASHEDX2
 70
0
  3
Dashed (2x) ____  ____  ____  ____  ____  ___
 72
65
 73
2
 40
38.1000000000000014
 49
25.3999999999999986
 74
0
 49
-12.6999999999999993
 74
0
  0
LTYPE
  5
37
100
AcDbSymbolTableRecord
100
AcDbLinetypeTableRecord
  2
DASHDOT
 70
0
  3
Dash dot __ . __ . __ . __ . __ . __ . __ . __
 72
65
 73
4
 40
25.3999999999999986
 49
12.6999999999999993
 74
0
 49
-6.3499999999999996
 74
0
 49
0.0
 74
0
 49
-6.3499999999999996
 74
0
  0
LTYPE
  5
38
100
AcDbSymbolTableRecord
100
AcDbLinetypeTableRecord
  2
DASHDOT2
 70
0
  3
Dash dot (.5x) _._._._._._._._._._._._._._._.
 72
65
 73
4
 40
12.6999999999999993
 49
6.3499999999999996
 74
0
 49
-3.1749999999999998
 74
0
 49
0.0
 74
0
 49
-3.1749999999999998
 74
0
  0
LTYPE
  5
39
100
AcDbSymbolTableRecord
100
AcDbLinetypeTableRecord
  2
DASHDOTX2
 70
0
  3
Dash dot (2x) ____  .  ____  .  ____  .  ___
 72
65
 73
4
 40
50.7999999999999972
 49
25.3999999999999986
 74
0
 49
-12.6999999999999993
 74
0
 49
0.0
 74
0
 49
-12.6999999999999993
 74
0
  0
LTYPE
  5
3A
100
AcDbSymbolTableRecord
100
AcDbLinetypeTableRecord
  2
DIVIDE
 70
0
  3
Divide ____ . . ____ . . ____ . . ____ . . ____
 72
65
 73
6
 40
31.75
 49
12.6999999999999993
 74
0
 49
-6.3499999999999996
 74
0
 49
0.0
 74
0
 49
-6.3499999999999996
 74
0
 49
0.0
 74
0
 49
-6.3499999999999996
 74
0
  0
LTYPE
  5
3B
100
AcDbSymbolTableRecord
100
AcDbLinetypeTableRecord
  2
DIVIDE2
 70
0
  3
Divide (.5x) __..__..__..__..__..__..__..__.._
 72
65
 73
6
 40
15.875
 49
6.3499999999999996
 74
0
 49
-3.1749999999999998
 74
0
 49
0.0
 74
0
 49
-3.1749999999999998
 74
0
 49
0.0
 74
0
 49
-3.1749999999999998
 74
0
  0
LTYPE
  5
3C
100
AcDbSymbolTableRecord
100
AcDbLinetypeTableRecord
  2
DIVIDEX2
 70
0
  3
Divide (2x) ________  .  .  ________  .  .  _
 72
65
 73
6
 40
63.5
 49
25.3999999999999986
 74
0
 49
-12.6999999999999993
 74
0
 49
0.0
 74
0
 49
-12.6999999999999993
 74
0
 49
0.0
 74
0
 49
-12.6999999999999993
 74
0
  0
LTYPE
  5
3D
100
AcDbSymbolTableRecord
100
AcDbLinetypeTableRecord
  2
CENTER
 70
0
  3
Center ____ _ ____ _ ____ _ ____ _ ____ _ ____
 72
65
 73
4
 40
50.7999999999999972
 49
31.75
 74
0
 49
-6.3499999999999996
 74
0
 49
6.3499999999999996
 74
0
 49
-6.3499999999999996
 74
0
  0
LTYPE
  5
3E
100
AcDbSymbolTableRecord
100
AcDbLinetypeTableRecord
  2
CENTER2
 70
0
  3
Center (.5x) ___ _ ___ _ ___ _ ___ _ ___ _ ___
 72
65
 73
4
 40
28.5749999999999993
 49
19.0500000000000007
 74
0
 49
-3.1749999999999998
 74
0
 49
3.1749999999999998
 74
0
 49
-3.1749999999999998
 74
0
  0
LTYPE
  5
3F
100
AcDbSymbolTableRecord
100
AcDbLinetypeTableRecord
  2
CENTERX2
 70
0
  3
Center (2x) ________  __  ________  __  _____
 72
65
 73
4
 40
101.5999999999999943
 49
63.5
 74
0
 49
-12.6999999999999993
 74
0
 49
12.6999999999999993
 74
0
 49
-12.6999999999999993
 74
0
  0
LTYPE
  5
40
100
AcDbSymbolTableRecord
100
AcDbLinetypeTableRecord
  2
BORDER
 70
0
  3
Border __ __ . __ __ . __ __ . __ __ . __ __ .
 72
65
 73
6
 40
44.4500000000000028
 49
12.6999999999999993
 74
0
 49
-6.3499999999999996
 74
0
 49
12.6999999999999993
 74
0
 49
-6.3499999999999996
 74
0
 49
0.0
 74
0
 49
-6.3499999999999996
 74
0
  0
LTYPE
  5
41
100
AcDbSymbolTableRecord
100
AcDbLinetypeTableRecord
  2
BORDER2
 70
0
  3
Border (.5x) __.__.__.__.__.__.__.__.__.__.__.
 72
65
 73
6
 40
22.2250000000000014
 49
6.3499999999999996
 74
0
 49
-3.1749999999999998
 74
0
 49
6.3499999999999996
 74
0
 49
-3.1749999999999998
 74
0
 49
0.0
 74
0
 49
-3.1749999999999998
 74
0
  0
LTYPE
  5
42
100
AcDbSymbolTableRecord
100
AcDbLinetypeTableRecord
  2
BORDERX2
 70
0
  3
Border (2x) ____  ____  .  ____  ____  .  ___
 72
65
 73
6
 40
88.9000000000000057
 49
25.3999999999999986
 74
0
 49
-12.6999999999999993
 74
0
 49
25.3999999999999986
 74
0
 49
-12.6999999999999993
 74
0
 49
0.0
 74
0
 49
-12.6999999999999993
 74
0
  0
ENDTAB
  0
TABLE
  2
LAYER
  5
2
100
AcDbSymbolTable
 70
13
  0
LAYER
  5
10
100
AcDbSymbolTableRecord
100
AcDbLayerTableRecord
  2
0
 70
0
 62
7
420
16777215
  6
CONTINUOUS
370
0
390
F
  0
LAYER
  5
43
100
AcDbSymbolTableRecord
100
AcDbLayerTableRecord
  2
Layout
 70
0
 62
7
420
16777215
  6
CONTINUOUS
390
F
  0
LAYER
  5
44
100
AcDbSymbolTableRecord
100
AcDbLayerTableRecord
  2
CutterOff
 70
0
 62
1
420
16711680
  6
CONTINUOUS
390
F
  0
LAYER
  5
45
100
AcDbSymbolTableRecord
100
AcDbLayerTableRecord
  2
Body
 70
0
 62
5
420
255
  6
CONTINUOUS
370
5
390
F
  0
LAYER
  5
46
100
AcDbSymbolTableRecord
100
AcDbLayerTableRecord
  2
Stop
 70
0
 62
11
420
16744319
  6
CONTINUOUS
390
F
  0
LAYER
  5
47
100
AcDbSymbolTableRecord
100
AcDbLayerTableRecord
  2
CutterOn
 70
0
 62
12
420
10813440
  6
CONTINUOUS
390
F
  0
LAYER
  5
48
100
AcDbSymbolTableRecord
100
AcDbLayerTableRecord
  2
Igniter
 70
0
 62
13
420
10834514
  6
CONTINUOUS
390
F
  0
LAYER
  5
49
100
AcDbSymbolTableRecord
100
AcDbLayerTableRecord
  2
Shear Pin
 70
0
 62
8
420
8355711
  6
CONTINUOUS
390
F
  0
LAYER
  5
4A
100
AcDbSymbolTableRecord
100
AcDbLayerTableRecord
  2
Center Ring
 70
0
 62
9
420
12566463
  6
CONTINUOUS
390
F
  0
LAYER
  5
4B
100
AcDbSymbolTableRecord
100
AcDbLayerTableRecord
  2
Wadding
 70
0
 62
1
420
16711680
  6
CONTINUOUS
390
F
  0
LAYER
  5
4C
100
AcDbSymbolTableRecord
100
AcDbLayerTableRecord
  2
Center Lines
 70
0
 62
7
420
16777215
  6
DASHDOT2
370
-3
390
F
  0
LAYER
  5
4D
100
AcDbSymbolTableRecord
100
AcDbLayerTableRecord
  2
Dimension
 70
0
 62
7
420
16777215
  6
CONTINUOUS
370
13
390
F
  0
LAYER
  5
4E
100
AcDbSymbolTableRecord
100
AcDbLayerTableRecord
  2
BoltCap
 70
0
 62
7
420
0
  6
CONTINUOUS
370
13
390
F
  0
ENDTAB
  0
TABLE
  2
STYLE
  5
3
100
AcDbSymbolTable
 70
1
  0
STYLE
  5
11
100
AcDbSymbolTableRecord
100
AcDbTextStyleTableRecord
  2
Standard
 70
0
 40
0.0
 41
0.75
 50
0.0
 71
0
 42
2.5
  3
txt
  4

  0
ENDTAB
  0
TABLE
  2
VIEW
  5
6
100
AcDbSymbolTable
 70
0
  0
ENDTAB
  0
TABLE
  2
UCS
  5
7
100
AcDbSymbolTable
 70
0
  0
ENDTAB
  0
TABLE
  2
APPID
  5
9
100
AcDbSymbolTable
 70
1
  0
APPID
  5
12
100
AcDbSymbolTableRecord
100
AcDbRegAppTableRecord
  2
ACAD
 70
0
  0
ENDTAB
  0
TABLE
  2
DIMSTYLE
  5
A
100
AcDbSymbolTable
 70
1
100
AcDbDimStyleTable
 71
0
  0
DIMSTYLE
105
27
100
AcDbSymbolTableRecord
100
AcDbDimStyleTableRecord
  2
Standard
 41
0.1
 42
0.05
 43
3.75
 44
0.05
 70
0
 73
0
 74
0
 77
1
 78
8
140
0.1
141
2.5
143
0.03937007874016
147
0.05
171
3
172
1
271
2
272
2
274
3
278
44
283
0
284
8
340
11
  0
ENDTAB
  0
TABLE
  2
BLOCK_RECORD
  5
1
100
AcDbSymbolTable
 70
1
  0
BLOCK_RECORD
  5
1F
100
AcDbSymbolTableRecord
100
AcDbBlockTableRecord
  2
*Model_Space
340
22
  0
BLOCK_RECORD
  5
1B
100
AcDbSymbolTableRecord
100
AcDbBlockTableRecord
  2
*Paper_Space
340
1E
  0
BLOCK_RECORD
  5
23
100
AcDbSymbolTableRecord
100
AcDbBlockTableRecord
  2
*Paper_Space0
340
26
  0
ENDTAB
  0
ENDSEC
  0
SECTION
  2
BLOCKS
  0
BLOCK
  5
20
100
AcDbEntity
  8
0
100
AcDbBlockBegin
  2
*Model_Space
 70
0
 10
0.0
 20
0.0
 30
0.0
  3
*Model_Space
  1

  0
ENDBLK
  5
21
100
AcDbEntity
  8
0
100
AcDbBlockEnd
  0
BLOCK
  5
1C
100
AcDbEntity
 67
1
  8
0
100
AcDbBlockBegin
  2
*Paper_Space
 70
0
 10
0.0
 20
0.0
 30
0.0
  3
*Paper_Space
  1

  0
ENDBLK
  5
1D
100
AcDbEntity
 67
1
  8
0
100
AcDbBlockEnd
  0
BLOCK
  5
24
100
AcDbEntity
  8
0
100
AcDbBlockBegin
  2
*Paper_Space0
 70
0
 10
0.0
 20
0.0
 30
0.0
  3
*Paper_Space0
  1

  0
ENDBLK
  5
25
100
AcDbEntity
  8
0
100
AcDbBlockEnd
  0
ENDSEC
  0
SECTION
  2
ENTITIES
  0
LINE
  5
4F
100
AcDbEntity
100
AcDbLine
  8
Wadding
 62
1
420
16711680
370
5
  6
CONTINUOUS
 10
3.2839999999999998
 20
2.1499999999999999
 30
0.0
 11
3.3340000000000001
 21
2.1000000000000001
 31
0.0
  0
LINE
  5
50
100
AcDbEntity
100
AcDbLine
  8
Wadding
 62
1
420
16711680
370
5
  6
CONTINUOUS
 10
3.3340000000000001
 20
2.1000000000000001
 30
0.0
 11
3.2839999999999998
 21
2.0499999999999998
 31
0.0
  0
LINE
  5
51
100
AcDbEntity
100
AcDbLine
  8
Wadding
 62
1
420
16711680
370
5
  6
CONTINUOUS
 10
3.2839999999999998
 20
2.0499999999999998
 30
0.0
 11
3.3340000000000001
 21
2.0
 31
0.0
  0
LINE
  5
52
100
AcDbEntity
100
AcDbLine
  8
Wadding
 62
1
420
16711680
370
5
  6
CONTINUOUS
 10
3.3340000000000001
 20
2.0
 30
0.0
 11
3.2839999999999998
 21
1.95
 31
0.0
  0
LINE
  5
53
100
AcDbEntity
100
AcDbLine
  8
Wadding
 62
1
420
16711680
370
5
  6
CONTINUOUS
 10
3.2839999999999998
 20
1.95
 30
0.0
 11
3.3340000000000001
 21
1.8999999999999999
 31
0.0
  0
LINE
  5
54
100
AcDbEntity
100
AcDbLine
  8
Wadding
 62
1
420
16711680
370
5
  6
CONTINUOUS
 10
3.3340000000000001
 20
1.8999999999999999
 30
0.0
 11
3.2839999999999998
 21
1.8500000000000001
 31
0.0
  0
MTEXT
  5
55
100
AcDbEntity
100
AcDbMText
  8
Dimension
 62
256
370
13
  6
CONTINUOUS
 10
0.8
 20
7.2999999999999998
 30
0.0
 40
0.2
 41
100.0
 71
7
 72
2
  1
Pyrotechnic\~Line\~Cutter
  7
Normal
 50
0.0
 73
1
 44
1.0
  0
DIMENSION
  5
56
100
AcDbEntity
  8
Dimension
 62
256
370
13
  6
CONTINUOUS
100
AcDbDimension
 10
2.0
 20
1.8125
 30
0.0
 11
1.8999999999999999
 21
2.0
 31
0.0
 70
0
 71
8
 72
1
 41
1.0
 42
0.0
  1

  3
Standard
100
AcDbAlignedDimension
 13
2.234
 23
1.8125
 33
0.0
 14
2.234
 24
2.1875
 34
0.0
 50
90.0
100
AcDbRotatedDimension
  0
LINE
  5
57
100
AcDbEntity
100
AcDbLine
  8
CutterOff
 62
256
370
-1
  6
ByLayer
 10
2.234
 20
2.0
 30
0.0
 11
2.5587595264191645
 21
2.1875
 31
0.0
  0
LINE
  5
58
100
AcDbEntity
100
AcDbLine
  8
CutterOff
 62
256
370
-1
  6
ByLayer
 10
2.234
 20
2.0
 30
0.0
 11
2.5587595264191645
 21
2.1875
 31
0.0
  0
LINE
  5
59
100
AcDbEntity
100
AcDbLine
  8
CutterOff
 62
256
370
-1
  6
ByLayer
 10
2.234
 20
2.0
 30
0.0
 11
2.5587595264191645
 21
1.8125
 31
0.0
  0
LINE
  5
5A
100
AcDbEntity
100
AcDbLine
  8
Igniter
 62
13
420
10834514
370
5
  6
CONTINUOUS
 10
3.6000000000000001
 20
2.1215000000000002
 30
0.0
 11
3.6000000000000001
 21
1.8785000000000001
 31
0.0
  0
LINE
  5
5B
100
AcDbEntity
100
AcDbLine
  8
Body
 62
256
370
-1
  6
ByLayer
 10
6.0128311367175966
 20
2.3098674650935509
 30
0.0
 11
6.0128311367175966
 21
2.3098674650935509
 31
0.0
  0
LINE
  5
5C
100
AcDbEntity
100
AcDbLine
  8
Body
 62
256
370
-1
  6
ByLayer
 10
6.0128311367175966
 20
2.3098674650935509
 30
0.0
 11
6.0128311367175966
 21
2.3098674650935509
 31
0.0
  0
LINE
  5
5D
100
AcDbEntity
100
AcDbLine
  8
Dimension
 62
256
370
-1
  6
ByLayer
 10
8.0875866133101155
 20
2.4499999999999997
 30
0.0
 11
7.6005708338080789
 21
2.0380999493378318
 31
0.0
  0
LINE
  5
5E
100
AcDbEntity
100
AcDbLine
  8
Dimension
 62
256
370
-1
  6
ByLayer
 10
7.6005708338080789
 20
2.0380999493378318
 30
0.0
 11
7.6105708338080786
 21
2.0780999493378314
 31
0.0
  0
LINE
  5
5F
100
AcDbEntity
100
AcDbLine
  8
Dimension
 62
256
370
-1
  6
ByLayer
 10
7.6005708338080789
 20
2.0380999493378318
 30
0.0
 11
7.6405708338080798
 21
2.0380999493378318
 31
0.0
  0
DIMENSION
  5
60
100
AcDbEntity
  8
Dimension
 62
256
370
13
  6
CONTINUOUS
100
AcDbDimension
 10
4.7000000000000002
 20
2.1931925934089902
 30
0.0
 11
4.6000000000000005
 21
2.0
 31
0.0
 70
0
 71
8
 72
1
 41
1.0
 42
0.0
  1

  3
Standard
100
AcDbAlignedDimension
 13
5.002586613310112
 23
2.1875
 33
0.0
 14
5.002586613310112
 24
1.8125
 34
0.0
 50
90.0
100
AcDbRotatedDimension
  0
LINE
  5
61
100
AcDbEntity
100
AcDbLine
  8
Dimension
 62
256
370
-1
  6
ByLayer
 10
2.3492752876667655
 20
1.6191559098150012
 30
0.0
 11
2.3648215831504888
 21
1.8403973733321253
 31
0.0
  0
LINE
  5
62
100
AcDbEntity
100
AcDbLine
  8
Dimension
 62
256
370
-1
  6
ByLayer
 10
2.3648215831504888
 20
1.8403973733321253
 30
0.0
 11
2.3402583883112209
 21
1.817062338234821
 31
0.0
  0
LINE
  5
63
100
AcDbEntity
100
AcDbLine
  8
Dimension
 62
256
370
-1
  6
ByLayer
 10
2.3402583883112209
 20
1.817062338234821
 30
0.0
 11
2.3635934234085254
 21
1.8391692135901618
 31
0.0
  0
LINE
  5
64
100
AcDbEntity
100
AcDbLine
  8
Dimension
 62
256
370
-1
  6
ByLayer
 10
2.3635934234085254
 20
1.8391692135901618
 30
0.0
 11
2.3814017396669942
 21
1.8133778590089309
 31
0.0
  0
LINE
  5
65
100
AcDbEntity
100
AcDbLine
  8
Body
 62
256
370
-1
  6
ByLayer
 10
6.0482899999999464
 20
2.3125
 30
0.0
 11
6.0482899999999464
 21
2.1875
 31
0.0
  0
LINE
  5
66
100
AcDbEntity
100
AcDbLine
  8
Body
 62
256
370
-1
  6
ByLayer
 10
6.0482899999999464
 20
1.8125
 30
0.0
 11
6.0482899999999464
 21
1.6875
 31
0.0
  0
LINE
  5
67
100
AcDbEntity
100
AcDbLine
  8
CutterOff
 62
256
370
-1
  6
ByLayer
 10
2.234
 20
2.0
 30
0.0
 11
2.5502500000000023
 21
2.1825870226312203
 31
0.0
  0
LINE
  5
68
100
AcDbEntity
100
AcDbLine
  8
BoltCap
 62
256
370
-1
  6
ByLayer
 10
10.1275866133101129
 20
2.2473475100561346
 30
0.0
 11
10.3275866133101122
 21
2.2473475100561346
 31
0.0
  0
LINE
  5
69
100
AcDbEntity
100
AcDbLine
  8
BoltCap
 62
256
370
-1
  6
ByLayer
 10
10.3275866133101122
 20
2.2473475100561346
 30
0.0
 11
10.3275866133101122
 21
1.8426578442537258
 31
0.0
  0
LINE
  5
6A
100
AcDbEntity
100
AcDbLine
  8
BoltCap
 62
256
370
-1
  6
ByLayer
 10
10.3275866133101122
 20
1.8426578442537258
 30
0.0
 11
10.3275866133101122
 21
1.7505678105115099
 31
0.0
  0
LINE
  5
6B
100
AcDbEntity
100
AcDbLine
  8
BoltCap
 62
256
370
-1
  6
ByLayer
 10
10.3275866133101122
 20
1.7505678105115099
 30
0.0
 11
10.1275866133101129
 21
1.7505678105115099
 31
0.0
  0
LINE
  5
6C
100
AcDbEntity
100
AcDbLine
  8
BoltCap
 62
256
370
-1
  6
ByLayer
 10
10.1275866133101129
 20
1.7505678105115099
 30
0.0
 11
10.1275866133101129
 21
1.8426578442537258
 31
0.0
  0
LINE
  5
6D
100
AcDbEntity
100
AcDbLine
  8
BoltCap
 62
256
370
-1
  6
ByLayer
 10
10.1275866133101129
 20
2.1573475100561348
 30
0.0
 11
10.1275866133101129
 21
2.2473475100561346
 31
0.0
  0
LINE
  5
6E
100
AcDbEntity
100
AcDbLine
  8
BoltCap
 62
256
370
-1
  6
ByLayer
 10
10.1275866133101093
 20
1.8426551499999999
 30
0.0
 11
9.6275866133101093
 21
1.8426551499999999
 31
0.0
  0
LINE
  5
6F
100
AcDbEntity
100
AcDbLine
  8
BoltCap
 62
256
370
-1
  6
ByLayer
 10
9.6275866133101093
 20
2.1573448499999999
 30
0.0
 11
9.6275866133101093
 21
1.8426551499999999
 31
0.0
  0
LINE
  5
70
100
AcDbEntity
100
AcDbLine
  8
BoltCap
 62
256
370
-1
  6
ByLayer
 10
9.6275866133101093
 20
2.1573448499999999
 30
0.0
 11
10.1275866133101129
 21
2.1573475100561348
 31
0.0
  0
LINE
  5
71
100
AcDbEntity
100
AcDbLine
  8
BoltCap
 62
256
370
-1
  6
ByLayer
 10
9.6275866133101093
 20
2.0732525100561348
 30
0.0
 11
9.6275866133101093
 21
2.0267525100561348
 31
0.0
  0
LINE
  5
72
100
AcDbEntity
100
AcDbLine
  8
BoltCap
 62
256
370
-1
  6
ByLayer
 10
9.6275866133101093
 20
1.9732525100561349
 30
0.0
 11
9.6275866133101093
 21
1.9273475100561348
 31
0.0
  0
LINE
  5
73
100
AcDbEntity
100
AcDbLine
  8
BoltCap
 62
256
370
-1
  6
ByLayer
 10
10.3275866133101122
 20
2.0732525100561348
 30
0.0
 11
9.6275866133101093
 21
2.0732525100561348
 31
0.0
  0
LINE
  5
74
100
AcDbEntity
100
AcDbLine
  8
BoltCap
 62
256
370
-1
  6
ByLayer
 10
10.3275866133101122
 20
1.9268120100561348
 30
0.0
 11
9.6275866133101093
 21
1.9273475100561348
 31
0.0
  0
LINE
  5
75
100
AcDbEntity
100
AcDbLine
  8
BoltCap
 62
256
370
-1
  6
ByLayer
 10
9.88401
 20
2.0732499999999998
 30
0.0
 11
9.8399999999999999
 21
2.0
 31
0.0
  0
LINE
  5
76
100
AcDbEntity
100
AcDbLine
  8
BoltCap
 62
256
370
-1
  6
ByLayer
 10
9.88401
 20
1.9267500000000002
 30
0.0
 11
9.8399999999999999
 21
2.0
 31
0.0
  0
LINE
  5
77
100
AcDbEntity
100
AcDbLine
  8
BoltCap
 62
256
370
-1
  6
ByLayer
 10
9.8560750054812285
 20
2.0267551500000001
 30
0.0
 11
9.6275899999999979
 21
2.0267551500000001
 31
0.0
  0
LINE
  5
78
100
AcDbEntity
100
AcDbLine
  8
BoltCap
 62
256
370
-1
  6
ByLayer
 10
9.8560704031730992
 20
1.9732525100561349
 30
0.0
 11
9.6275866133101093
 21
1.9732525100561349
 31
0.0
  0
DIMENSION
  5
79
100
AcDbEntity
  8
Dimension
 62
256
370
-1
  6
ByLayer
100
AcDbDimension
 10
10.1275866133101129
 20
1.2423262909819772
 30
0.0
 11
9.8775866133101111
 21
1.3423262909819773
 31
0.0
 70
0
 71
5
 72
1
 41
1.0
 42
0.0
  1

  3
Standard
100
AcDbAlignedDimension
 13
9.6275866133101093
 23
1.8426551499999999
 33
0.0
 14
10.1275866133101129
 24
1.8426551499999999
 34
0.0
 50
0.0
100
AcDbRotatedDimension
  0
MTEXT
  5
7A
100
AcDbEntity
100
AcDbMText
  8
Dimension
 62
256
370
13
  6
CONTINUOUS
 10
9.7000000000000011
 20
0.8
 30
0.0
 40
0.1
 41
100.0
 71
7
 72
2
  1
\~\~\~\~\~\~\~\~\~\~\~#21\P(Clearance\~Hole)
  7
Standard
 50
0.0
 73
1
 44
1.0
  0
LINE
  5
7B
100
AcDbEntity
100
AcDbLine
  8
BoltCap
 62
256
370
-1
  6
ByLayer
 10
10.5619938746728597
 20
1.0981775036476749
 30
0.0
 11
10.4701667455282585
 21
1.928369712036617
 31
0.0
  0
LINE
  5
7C
100
AcDbEntity
100
AcDbLine
  8
BoltCap
 62
256
370
-1
  6
ByLayer
 10
10.4701667455282585
 20
1.928369712036617
 30
0.0
 11
10.3970798468213328
 21
1.9564800576931274
 31
0.0
  0
LINE
  5
7D
100
AcDbEntity
100
AcDbLine
  8
BoltCap
 62
256
370
-1
  6
ByLayer
 10
10.3970798468213328
 20
1.9564800576931274
 30
0.0
 11
10.4002532005046522
 21
1.9281125421031562
 31
0.0
  0
LINE
  5
7E
100
AcDbEntity
100
AcDbLine
  8
BoltCap
 62
256
370
-1
  6
ByLayer
 10
10.4002532005046522
 20
1.9281125421031562
 30
0.0
 11
10.3975021226826527
 21
1.9564093425579925
 31
0.0
  0
LINE
  5
7F
100
AcDbEntity
100
AcDbLine
  8
BoltCap
 62
256
370
-1
  6
ByLayer
 10
10.3975021226826527
 20
1.9564093425579925
 30
0.0
 11
10.4234408564329204
 21
1.9689856983156975
 31
0.0
  0
MTEXT
  5
80
100
AcDbEntity
100
AcDbMText
  8
Dimension
 62
256
370
13
  6
CONTINUOUS
 10
0.8316733104524185
 20
2.85827953822153
 30
0.0
 40
0.2
 41
100.0
 71
7
 72
2
  1
Stop
  7
Normal
 50
0.0
 73
1
 44
1.0
  0
LEADER
  5
81
  8
Dimension
 62
256
370
13
  6
CONTINUOUS
100
AcDbEntity
100
AcDbLeader
  3
Standard
 71
1
 72
0
 73
3
 74
0
 75
0
 40
1.0
 41
10.0
 76
2
 10
3.3152218858034339
 20
2.2139717092043694
 10
3.3993451631825291
 20
3.13168018970359
  0
MTEXT
  5
82
100
AcDbEntity
100
AcDbMText
  8
Dimension
 62
256
370
13
  6
CONTINUOUS
 10
3.3343408124805012
 20
3.1928607550702046
 30
0.0
 40
0.2
 41
100.0
 71
7
 72
2
  1
Wadding
  7
Normal
 50
0.0
 73
1
 44
1.0
  0
MTEXT
  5
83
100
AcDbEntity
100
AcDbMText
  8
Dimension
 62
256
370
13
  6
CONTINUOUS
 10
3.6000000000000001
 20
1.4000000000000001
 30
0.0
 40
0.2
 41
100.0
 71
7
 72
2
  1
Igniter
  7
Normal
 50
0.0
 73
1
 44
1.0
  0
LINE
  5
84
100
AcDbEntity
100
AcDbLine
  8
Center Lines
 62
256
370
-1
  6
ByLayer
 10
0.2
 20
2.0
 30
0.0
 11
10.8000000000000007
 21
2.0
 31
0.0
  0
MTEXT
  5
85
100
AcDbEntity
100
AcDbMText
  8
BoltCap
 62
256
370
-1
  6
ByLayer
 10
9.5
 20
2.8000000000000003
 30
0.0
 40
0.1
 41
100.0
 71
1
 72
2
  1
5/16\~Hex\~Bolt
  7
standard
 50
0.0
 73
0
 44
1.0
  0
DIMENSION
  5
86
100
AcDbEntity
  8
Dimension
 62
256
370
-1
  6
ByLayer
100
AcDbDimension
 10
10.2000000000000011
 20
2.4000000000000004
 30
0.0
 11
10.0895655555555557
 21
2.5000000000000004
 31
0.0
 70
0
 71
5
 72
1
 41
1.0
 42
0.0
  1

  3
Standard
100
AcDbAlignedDimension
 13
9.6275866133101093
 23
2.1573448499999999
 33
0.0
 14
9.88401
 24
2.0732499999999998
 34
0.0
 50
0.0
100
AcDbRotatedDimension
  0
DIMENSION
  5
87
100
AcDbEntity
  8
Dimension
 62
256
370
-1
  6
ByLayer
100
AcDbDimension
 10
9.2942379996210214
 20
1.9465269178206226
 30
0.0
 11
9.1942379996210235
 21
2.2444469545005794
 31
0.0
 70
0
 71
5
 72
1
 41
1.0
 42
0.0
  1

  3
Standard
100
AcDbAlignedDimension
 13
9.6187930760637634
 23
2.0500025100561348
 33
0.0
 14
9.6187930760637634
 24
1.9465269178206226
 34
0.0
 50
90.0
100
AcDbRotatedDimension
  0
DIMENSION
  5
88
100
AcDbEntity
  8
Dimension
 62
256
370
-1
  6
ByLayer
100
AcDbDimension
 10
10.3275866133101122
 20
1.2399959207737954
 30
0.0
 11
10.2275866133101125
 21
1.3399959207737955
 31
0.0
 70
0
 71
5
 72
1
 41
1.0
 42
0.0
  1

  3
Standard
100
AcDbAlignedDimension
 13
10.1275866133101129
 23
1.7505678105115099
 33
0.0
 14
10.3275866133101122
 24
1.7505678105115099
 34
0.0
 50
0.0
100
AcDbRotatedDimension
  0
DIMENSION
  5
89
100
AcDbEntity
  8
Dimension
 62
256
370
-1
  6
ByLayer
100
AcDbDimension
 10
7.9000000000000004
 20
2.1000000000000001
 30
0.0
 11
8.040291010096789
 21
2.0
 31
0.0
 70
0
 71
5
 72
0
 41
1.0
 42
0.0
  1

  3
Standard
100
AcDbAlignedDimension
 13
7.5367266133101127
 23
1.8718999999999999
 33
0.0
 14
7.5367308888670435
 24
2.1284999999999998
 34
0.0
 50
90.0
100
AcDbRotatedDimension
  0
DIMENSION
  5
8A
100
AcDbEntity
  8
Dimension
 62
256
370
-1
  6
ByLayer
100
AcDbDimension
 10
8.8000000000000007
 20
2.3000000000000003
 30
0.0
 11
8.7000000000000011
 21
2.0
 31
0.0
 70
0
 71
5
 72
1
 41
1.0
 42
0.0
  1

  3
Standard
100
AcDbAlignedDimension
 13
7.5367308888670435
 23
1.6875
 33
0.0
 14
7.5367308888670435
 24
2.3125
 34
0.0
 50
90.0
100
AcDbRotatedDimension
  0
DIMENSION
  5
8B
100
AcDbEntity
  8
Dimension
 62
256
370
-1
  6
ByLayer
100
AcDbDimension
 10
8.4445690452189179
 20
1.8124999999999998
 30
0.0
 11
8.3445690452189183
 21
2.0
 31
0.0
 70
0
 71
5
 72
0
 41
1.0
 42
0.0
  1

  3
Standard
100
AcDbAlignedDimension
 13
7.5323966133101115
 23
2.1875
 33
0.0
 14
7.5323966133101115
 24
1.8125
 34
0.0
 50
90.0
100
AcDbRotatedDimension
  0
MTEXT
  5
8C
100
AcDbEntity
100
AcDbMText
  8
Dimension
 62
256
370
-1
  6
ByLayer
 10
7.7961053054602925
 20
2.7524711039001821
 30
0.0
 40
0.1
 41
100.0
 71
1
 72
2
  1
Drill\~F,\~5/16\~Tapped\PCountersunk
  7
standard
 50
0.0
 73
0
 44
1.0
  0
MTEXT
  5
8D
100
AcDbEntity
100
AcDbMText
  8
Dimension
 62
256
370
-1
  6
ByLayer
 10
0.8000000000000002
 20
2.8000000000000003
 30
0.0
 40
0.1
 41
100.0
 71
1
 72
2
  1
Side\~View
  7
standard
 50
0.0
 73
0
 44
1.0
  0
CIRCLE
  5
8E
100
AcDbEntity
100
AcDbCircle
  8
Body
 62
256
370
-1
  6
ByLayer
 10
7.7000000000000002
 20
1.0
 30
0.0
 40
0.3125
  0
CIRCLE
  5
8F
100
AcDbEntity
100
AcDbCircle
  8
Body
 62
256
370
-1
  6
ByLayer
 10
7.7000000000000002
 20
1.0
 30
0.0
 40
0.1875
  0
LINE
  5
90
100
AcDbEntity
100
AcDbLine
  8
Body
 62
256
370
-1
  6
ByLayer
 10
7.9418305191657987
 20
1.2001112190757932
 30
0.0
 11
7.9209708691207963
 21
1.2209708691207961
 31
0.0
  0
LINE
  5
91
100
AcDbEntity
100
AcDbLine
  8
Body
 62
256
370
-1
  6
ByLayer
 10
7.9209708691207963
 20
1.2209708691207961
 30
0.0
 11
7.9001112190757938
 21
1.241830519165799
 31
0.0
  0
LINE
  5
92
100
AcDbEntity
100
AcDbLine
  8
Body
 62
256
370
-1
  6
ByLayer
 10
7.4790291308792041
 20
1.2209708691207961
 30
0.0
 11
7.4581694808342007
 21
1.2001112190757937
 31
0.0
  0
LINE
  5
93
100
AcDbEntity
100
AcDbLine
  8
Body
 62
256
370
-1
  6
ByLayer
 10
7.4998887809242119
 20
1.2418305191658032
 30
0.0
 11
7.4790291308792085
 21
1.2209708691208008
 31
0.0
  0
LINE
  5
94
100
AcDbEntity
100
AcDbLine
  8
Body
 62
256
370
-1
  6
ByLayer
 10
7.4998887809242065
 20
0.7581694808342012
 30
0.0
 11
7.5899283703598179
 21
0.8482090702698128
 31
0.0
  0
LINE
  5
95
100
AcDbEntity
100
AcDbLine
  8
Body
 62
256
370
-1
  6
ByLayer
 10
7.4591562596211736
 20
0.8008755597111792
 30
0.0
 11
7.548209070269813
 21
0.8899283703598183
 31
0.0
  0
LINE
  5
96
100
AcDbEntity
100
AcDbLine
  8
Body
 62
256
370
-1
  6
ByLayer
 10
7.6705000000000005
 20
0.8148352085303472
 30
0.0
 11
7.6705000000000005
 21
0.6875
 31
0.0
  0
LINE
  5
97
100
AcDbEntity
100
AcDbLine
  8
Body
 62
256
370
-1
  6
ByLayer
 10
7.8517909297301873
 20
1.1100716296401818
 30
0.0
 11
7.9408437403788268
 21
1.1991244402888213
 31
0.0
  0
LINE
  5
98
100
AcDbEntity
100
AcDbLine
  8
Body
 62
256
370
-1
  6
ByLayer
 10
7.8100716296401824
 20
1.1517909297301872
 30
0.0
 11
7.8991244402888219
 21
1.2408437403788266
 31
0.0
  0
LINE
  5
99
100
AcDbEntity
100
AcDbLine
  8
Body
 62
256
370
-1
  6
ByLayer
 10
7.6705000000000005
 20
1.3111044840564019
 30
0.0
 11
7.6705000000000005
 21
1.1851647914696528
 31
0.0
  0
LINE
  5
9A
100
AcDbEntity
100
AcDbLine
  8
Body
 62
256
370
-1
  6
ByLayer
 10
7.7294999999999998
 20
1.3111044840564019
 30
0.0
 11
7.7294999999999998
 21
1.1851647914696528
 31
0.0
  0
LINE
  5
9B
100
AcDbEntity
100
AcDbLine
  8
Body
 62
256
370
-1
  6
ByLayer
 10
7.6705000000000005
 20
0.8148352085303472
 30
0.0
 11
7.6705000000000005
 21
0.6888955159435981
 31
0.0
  0
LINE
  5
9C
100
AcDbEntity
100
AcDbLine
  8
Body
 62
256
370
-1
  6
ByLayer
 10
7.7294999999999998
 20
0.6888955159435981
 30
0.0
 11
7.7294999999999998
 21
0.8148352085303472
 31
0.0
  0
LINE
  5
9D
100
AcDbEntity
100
AcDbLine
  8
Body
 62
256
370
-1
  6
ByLayer
 10
7.9418305191657943
 20
0.7998887809242019
 30
0.0
 11
7.8517909297301838
 21
0.8899283703598128
 31
0.0
  0
LINE
  5
9E
100
AcDbEntity
100
AcDbLine
  8
Body
 62
256
370
-1
  6
ByLayer
 10
7.8991244402888201
 20
0.7591562596211733
 30
0.0
 11
7.8100716296401815
 21
0.8482090702698122
 31
0.0
  0
LINE
  5
9F
100
AcDbEntity
100
AcDbLine
  8
Body
 62
256
370
-1
  6
ByLayer
 10
7.5899283703598188
 20
1.1517909297301874
 30
0.0
 11
7.5008755597111794
 21
1.2408437403788268
 31
0.0
  0
LINE
  5
A0
100
AcDbEntity
100
AcDbLine
  8
Body
 62
256
370
-1
  6
ByLayer
 10
7.548209070269813
 20
1.1100716296401816
 30
0.0
 11
7.4591562596211736
 21
1.1991244402888208
 31
0.0
  0
MTEXT
  5
A1
100
AcDbEntity
100
AcDbMText
  8
Dimension
 62
256
370
-1
  6
ByLayer
 10
7.3000000000000007
 20
0.6000000000000001
 30
0.0
 40
0.1
 41
100.0
 71
1
 72
2
  1
Body\~End\~View\~\P\~\~\~of\~Vents
  7
standard
 50
0.0
 73
0
 44
1.0
  0
MTEXT
  5
A2
100
AcDbEntity
100
AcDbMText
  8
Dimension
 62
256
370
-1
  6
ByLayer
 10
2.0528690039403368
 20
1.6394439962023524
 30
0.0
 40
0.1
 41
100.0
 71
1
 72
2
  1
60deg
  7
standard
 50
0.0
 73
0
 44
1.0
  0
LINE
  5
A3
100
AcDbEntity
100
AcDbLine
  8
Dimension
 62
256
370
13
  6
CONTINUOUS
 10
4.489486384190732
 20
4.8335139500086752
 30
0.0
 11
4.0284863841907317
 21
5.0179139500086754
 31
0.0
  0
LINE
  5
A4
100
AcDbEntity
100
AcDbLine
  8
Dimension
 62
256
370
13
  6
CONTINUOUS
 10
4.3866873841907319
 20
4.8457749500086758
 30
0.0
 11
4.489486384190732
 21
4.8335139500086752
 31
0.0
  0
LINE
  5
A5
100
AcDbEntity
100
AcDbLine
  8
Dimension
 62
256
370
13
  6
CONTINUOUS
 10
4.4065903841907321
 20
4.8955319500086754
 30
0.0
 11
4.489486384190732
 21
4.8335139500086752
 31
0.0
  0
LINE
  5
A6
100
AcDbEntity
100
AcDbLine
  8
Center Lines
 62
256
370
-1
  6
ByLayer
 10
2.5368057905829264
 20
4.8555555555555561
 30
0.0
 11
8.267522796962206
 21
4.8555555555555561
 31
0.0
  0
LINE
  5
A7
100
AcDbEntity
100
AcDbLine
  8
Dimension
 62
256
370
-1
  6
ByLayer
 10
7.863991913220973
 20
5.4668360500148854
 30
0.0
 11
7.200891913220973
 21
5.2864760500148851
 31
0.0
  0
LINE
  5
A8
100
AcDbEntity
100
AcDbLine
  8
Dimension
 62
256
370
-1
  6
ByLayer
 10
7.200891913220973
 20
5.2864760500148851
 30
0.0
 11
7.1585919132209739
 21
5.1854360500148848
 31
0.0
  0
LINE
  5
A9
100
AcDbEntity
100
AcDbLine
  8
Dimension
 62
256
370
-1
  6
ByLayer
 10
7.1585919132209739
 20
5.1854360500148848
 30
0.0
 11
7.1468919132209727
 21
5.2441760500148851
 31
0.0
  0
LINE
  5
AA
100
AcDbEntity
100
AcDbLine
  8
Dimension
 62
256
370
-1
  6
ByLayer
 10
7.1609919132209736
 20
5.183086050014885
 30
0.0
 11
7.2196919132209736
 21
5.2089260500148855
 31
0.0
  0
LINE
  5
AB
100
AcDbEntity
100
AcDbLine
  8
Dimension
 62
256
370
-1
  6
ByLayer
 10
7.1468919132209727
 20
5.2441760500148851
 30
0.0
 11
7.1609919132209736
 21
5.183086050014885
 31
0.0
  0
LINE
  5
AC
100
AcDbEntity
100
AcDbLine
  8
Dimension
 62
256
370
-1
  6
ByLayer
 10
5.0825696501359463
 20
5.3071395639710914
 30
0.0
 11
5.0531963918452849
 21
5.1984585082956452
 31
0.0
  0
LINE
  5
AD
100
AcDbEntity
100
AcDbLine
  8
Dimension
 62
256
370
-1
  6
ByLayer
 10
5.0531963918452849
 20
5.1984585082956452
 30
0.0
 11
5.0238231335546235
 21
5.2454557215607034
 31
0.0
  0
LINE
  5
AE
100
AcDbEntity
100
AcDbLine
  8
Dimension
 62
256
370
-1
  6
ByLayer
 10
5.0238231335546235
 20
5.2454557215607034
 30
0.0
 11
5.0590710435034172
 21
5.2043331599537774
 31
0.0
  0
LINE
  5
AF
100
AcDbEntity
100
AcDbLine
  8
Dimension
 62
256
370
-1
  6
ByLayer
 10
5.0590710435034172
 20
5.2043331599537774
 30
0.0
 11
5.1148802342556738
 21
5.216082463270042
 31
0.0
  0
LINE
  5
B0
100
AcDbEntity
100
AcDbLine
  8
Dimension
 62
256
370
-1
  6
ByLayer
 10
8.2368057905829275
 20
5.1555555555555559
 30
0.0
 11
7.3668057905829247
 21
4.9155555555555557
 31
0.0
  0
LINE
  5
B1
100
AcDbEntity
100
AcDbLine
  8
Dimension
 62
256
370
-1
  6
ByLayer
 10
7.3668057905829247
 20
4.9155555555555557
 30
0.0
 11
7.3868057905829243
 21
4.9555555555555557
 31
0.0
  0
LINE
  5
B2
100
AcDbEntity
100
AcDbLine
  8
Dimension
 62
256
370
-1
  6
ByLayer
 10
7.3868057905829243
 20
4.9555555555555557
 30
0.0
 11
7.3668057905829247
 21
4.9155555555555557
 31
0.0
  0
LINE
  5
B3
100
AcDbEntity
100
AcDbLine
  8
Dimension
 62
256
370
-1
  6
ByLayer
 10
7.3668057905829247
 20
4.9155555555555557
 30
0.0
 11
7.4068057905829257
 21
4.9055555555555559
 31
0.0
  0
LINE
  5
B4
100
AcDbEntity
100
AcDbLine
  8
Dimension
 62
256
370
-1
  6
ByLayer
 10
8.2368057905829275
 20
5.1555555555555559
 30
0.0
 11
7.3631097449642553
 21
4.8058185149742476
 31
0.0
  0
LINE
  5
B5
100
AcDbEntity
100
AcDbLine
  8
Dimension
 62
256
370
-1
  6
ByLayer
 10
7.3631097449642553
 20
4.8058185149742476
 30
0.0
 11
7.3768057905829245
 21
4.8255555555555558
 31
0.0
  0
LINE
  5
B6
100
AcDbEntity
100
AcDbLine
  8
Dimension
 62
256
370
-1
  6
ByLayer
 10
7.3768057905829245
 20
4.8255555555555558
 30
0.0
 11
7.3631097449642553
 21
4.8058185149742476
 31
0.0
  0
LINE
  5
B7
100
AcDbEntity
100
AcDbLine
  8
Dimension
 62
256
370
-1
  6
ByLayer
 10
7.3631097449642553
 20
4.8058185149742476
 30
0.0
 11
7.3868057905829243
 21
4.7955555555555565
 31
0.0
  0
LINE
  5
B8
100
AcDbEntity
100
AcDbLine
  8
Dimension
 62
256
370
-1
  6
ByLayer
 10
4.7007442156859778
 20
4.108642900906684
 30
0.0
 11
4.69321747643402
 21
4.7555555555555564
 31
0.0
  0
LINE
  5
B9
100
AcDbEntity
100
AcDbLine
  8
Dimension
 62
256
370
-1
  6
ByLayer
 10
4.69321747643402
 20
4.7555555555555564
 30
0.0
 11
4.7308152470460669
 21
4.7160778964129078
 31
0.0
  0
LINE
  5
BA
100
AcDbEntity
100
AcDbLine
  8
Dimension
 62
256
370
-1
  6
ByLayer
 10
4.6927554797804376
 20
4.7559110460989604
 30
0.0
 11
4.6589174862295959
 21
4.7089138328339022
 31
0.0
  0
LINE
  5
BB
100
AcDbEntity
100
AcDbLine
  8
Dimension
 62
256
370
-1
  6
ByLayer
 10
5.7217438989295433
 20
5.3821180813935472
 30
0.0
 11
5.5658251816880986
 21
5.2118068671759694
 31
0.0
  0
LINE
  5
BC
100
AcDbEntity
100
AcDbLine
  8
Dimension
 62
256
370
-1
  6
ByLayer
 10
5.5658251816880986
 20
5.2118068671759694
 30
0.0
 11
5.5622270574440646
 21
5.2525856086083467
 31
0.0
  0
LINE
  5
BD
100
AcDbEntity
100
AcDbLine
  8
Dimension
 62
256
370
-1
  6
ByLayer
 10
5.5622270574440646
 20
5.2525856086083467
 30
0.0
 11
5.5670245564361096
 21
5.2118068671759694
 31
0.0
  0
LINE
  5
BE
100
AcDbEntity
100
AcDbLine
  8
Dimension
 62
256
370
-1
  6
ByLayer
 10
5.5670245564361096
 20
5.2118068671759694
 30
0.0
 11
5.6018064241284318
 21
5.2142056166719915
 31
0.0
  0
LINE
  5
BF
100
AcDbEntity
100
AcDbLine
  8
BoltCap
 62
256
370
-1
  6
ByLayer
 10
7.0808040897441336
 20
5.1029030656116916
 30
0.0
 11
7.2808040897441328
 21
5.1029030656116916
 31
0.0
  0
LINE
  5
C0
100
AcDbEntity
100
AcDbLine
  8
BoltCap
 62
256
370
-1
  6
ByLayer
 10
7.2808040897441328
 20
5.1029030656116916
 30
0.0
 11
7.2808040897441328
 21
4.6982133998092825
 31
0.0
  0
LINE
  5
C1
100
AcDbEntity
100
AcDbLine
  8
BoltCap
 62
256
370
-1
  6
ByLayer
 10
7.2808040897441328
 20
4.6982133998092825
 30
0.0
 11
7.2808040897441328
 21
4.6061233660670666
 31
0.0
  0
LINE
  5
C2
100
AcDbEntity
100
AcDbLine
  8
BoltCap
 62
256
370
-1
  6
ByLayer
 10
7.2808040897441328
 20
4.6061233660670666
 30
0.0
 11
7.0808040897441336
 21
4.6061233660670666
 31
0.0
  0
LINE
  5
C3
100
AcDbEntity
100
AcDbLine
  8
BoltCap
 62
256
370
-1
  6
ByLayer
 10
7.0808040897441336
 20
4.6061233660670666
 30
0.0
 11
7.0808040897441336
 21
4.6982133998092825
 31
0.0
  0
LINE
  5
C4
100
AcDbEntity
100
AcDbLine
  8
BoltCap
 62
256
370
-1
  6
ByLayer
 10
7.0808040897441336
 20
5.0129030656116917
 30
0.0
 11
7.0808040897441336
 21
5.1029030656116916
 31
0.0
  0
LINE
  5
C5
100
AcDbEntity
100
AcDbLine
  8
BoltCap
 62
256
370
-1
  6
ByLayer
 10
7.08080408974413
 20
4.6982107055555566
 30
0.0
 11
6.58080408974413
 21
4.6982107055555566
 31
0.0
  0
LINE
  5
C6
100
AcDbEntity
100
AcDbLine
  8
BoltCap
 62
256
370
-1
  6
ByLayer
 10
6.58080408974413
 20
5.0129004055555564
 30
0.0
 11
6.58080408974413
 21
4.6982107055555566
 31
0.0
  0
LINE
  5
C7
100
AcDbEntity
100
AcDbLine
  8
BoltCap
 62
256
370
-1
  6
ByLayer
 10
6.58080408974413
 20
5.0129004055555564
 30
0.0
 11
7.0808040897441336
 21
5.0129030656116917
 31
0.0
  0
LINE
  5
C8
100
AcDbEntity
100
AcDbLine
  8
BoltCap
 62
256
370
-1
  6
ByLayer
 10
6.58080408974413
 20
4.9288080656116913
 30
0.0
 11
6.58080408974413
 21
4.8823080656116913
 31
0.0
  0
LINE
  5
C9
100
AcDbEntity
100
AcDbLine
  8
BoltCap
 62
256
370
-1
  6
ByLayer
 10
6.58080408974413
 20
4.8288080656116916
 30
0.0
 11
6.58080408974413
 21
4.7829030656116922
 31
0.0
  0
LINE
  5
CA
100
AcDbEntity
100
AcDbLine
  8
BoltCap
 62
256
370
-1
  6
ByLayer
 10
7.2808040897441328
 20
4.9288080656116913
 30
0.0
 11
6.58080408974413
 21
4.9288080656116913
 31
0.0
  0
LINE
  5
CB
100
AcDbEntity
100
AcDbLine
  8
BoltCap
 62
256
370
-1
  6
ByLayer
 10
7.2808040897441328
 20
4.7823675656116915
 30
0.0
 11
6.58080408974413
 21
4.7829030656116922
 31
0.0
  0
LINE
  5
CC
100
AcDbEntity
100
AcDbLine
  8
BoltCap
 62
256
370
-1
  6
ByLayer
 10
6.8372274764340206
 20
4.9288055555555568
 30
0.0
 11
6.7932174764340205
 21
4.855555555555557
 31
0.0
  0
LINE
  5
CD
100
AcDbEntity
100
AcDbLine
  8
BoltCap
 62
256
370
-1
  6
ByLayer
 10
6.8372274764340206
 20
4.7823055555555571
 30
0.0
 11
6.7932174764340205
 21
4.855555555555557
 31
0.0
  0
LINE
  5
CE
100
AcDbEntity
100
AcDbLine
  8
BoltCap
 62
256
370
-1
  6
ByLayer
 10
6.8092924819152492
 20
4.8823107055555566
 30
0.0
 11
6.5808074764340185
 21
4.8823107055555566
 31
0.0
  0
LINE
  5
CF
100
AcDbEntity
100
AcDbLine
  8
BoltCap
 62
256
370
-1
  6
ByLayer
 10
6.8092878796071199
 20
4.8288080656116916
 30
0.0
 11
6.58080408974413
 21
4.8288080656116916
 31
0.0
  0
LINE
  5
D0
100
AcDbEntity
100
AcDbLine
  8
BoltCap
 62
256
370
-1
  6
ByLayer
 10
7.8310892110193526
 20
4.6122271649452573
 30
0.0
 11
7.4375450182180982
 21
4.7681597696400937
 31
0.0
  0
LINE
  5
D1
100
AcDbEntity
100
AcDbLine
  8
BoltCap
 62
256
370
-1
  6
ByLayer
 10
7.4375450182180982
 20
4.7681597696400937
 30
0.0
 11
7.4523957424747493
 21
4.7217512563380595
 31
0.0
  0
LINE
  5
D2
100
AcDbEntity
100
AcDbLine
  8
BoltCap
 62
256
370
-1
  6
ByLayer
 10
7.4523957424747493
 20
4.7217512563380595
 30
0.0
 11
7.4412576992822608
 21
4.7681597696400937
 31
0.0
  0
LINE
  5
D3
100
AcDbEntity
100
AcDbLine
  8
BoltCap
 62
256
370
-1
  6
ByLayer
 10
7.4412576992822608
 20
4.7681597696400937
 30
0.0
 11
7.4895225531163767
 21
4.781154153364664
 31
0.0
  0
MTEXT
  5
D4
100
AcDbEntity
100
AcDbMText
  8
BoltCap
 62
256
370
-1
  6
ByLayer
 10
7.8920919132209733
 20
5.5434160500148852
 30
0.0
 40
0.1
 41
100.0
 71
1
 72
2
  1
Nylon\~Washer
  7
standard
 50
0.0
 73
1
 44
1.0
  0
LINE
  5
D5
100
AcDbEntity
100
AcDbLine
  8
Dimension
 62
256
370
-1
  6
ByLayer
 10
6.5570073811079892
 20
4.4146665546195365
 30
0.0
 11
6.5594676904746034
 21
4.6188722320485542
 31
0.0
  0
LINE
  5
D6
100
AcDbEntity
100
AcDbLine
  8
Dimension
 62
256
370
-1
  6
ByLayer
 10
6.5594676904746034
 20
4.6188722320485542
 30
0.0
 11
6.5299439780752273
 21
4.5893485196491781
 31
0.0
  0
LINE
  5
D7
100
AcDbEntity
100
AcDbLine
  8
Dimension
 62
256
370
-1
  6
ByLayer
 10
6.5598283049073434
 20
4.6166490886318989
 30
0.0
 11
6.5835626613678917
 21
4.5893029822751812
 31
0.0
  0
MTEXT
  5
D8
100
AcDbEntity
100
AcDbMText
  8
Dimension
 62
256
370
-1
  6
ByLayer
 10
6.261770257114228
 20
4.3826825328535461
 30
0.0
 40
0.1
 41
100.0
 71
1
 72
2
  1
Plumbers\~Puddy\Pbelow\~Igniter
  7
standard
 50
0.0
 73
0
 44
1.0
  0
DIMENSION
  5
D9
100
AcDbEntity
  8
Dimension
 62
256
370
-1
  6
ByLayer
100
AcDbDimension
 10
0.6422640655412283
 20
2.1875
 30
0.0
 11
0.5422640655412283
 21
2.0
 31
0.0
 70
0
 71
5
 72
0
 41
1.0
 42
0.0
  1

  3
Standard
100
AcDbAlignedDimension
 13
0.875
 23
1.8125
 33
0.0
 14
0.875
 24
2.1875
 34
0.0
 50
90.0
100
AcDbRotatedDimension
  0
MTEXT
  5
DA
100
AcDbEntity
100
AcDbMText
  8
Dimension
 62
256
370
13
  6
CONTINUOUS
 10
4.3875877321218066
 20
3.973449540625261
 30
0.0
 40
0.1
 41
100.0
 71
7
 72
2
  1
#29\P(Stop\~Screw)
  7
Standard
 50
0.0
 73
1
 44
1.0
  0
MTEXT
  5
DB
100
AcDbEntity
100
AcDbMText
  8
Dimension
 62
256
370
13
  6
CONTINUOUS
 10
7.8705191846670592
 20
4.5173810112749422
 30
0.0
 40
0.1
 41
100.0
 71
7
 72
2
  1
#21\~(Clearance\~Hole)
  7
Standard
 50
0.0
 73
1
 44
1.0
  0
MTEXT
  5
DC
100
AcDbEntity
100
AcDbMText
  8
Dimension
 62
256
370
13
  6
CONTINUOUS
 10
8.2744401692386518
 20
5.1143524664138402
 30
0.0
 40
0.1
 41
100.0
 71
7
 72
2
  1
#54\~(Lead\~wires)
  7
Standard
 50
0.0
 73
1
 44
1.0
  0
MTEXT
  5
DD
100
AcDbEntity
100
AcDbMText
  8
Dimension
 62
256
370
13
  6
CONTINUOUS
 10
4.9709952542117986
 20
5.3555555555555561
 30
0.0
 40
0.1
 41
100.0
 71
7
 72
2
  1
7/32"
  7
Standard
 50
0.0
 73
1
 44
1.0
  0
LINE
  5
DE
100
AcDbEntity
100
AcDbLine
  8
Center Lines
 62
256
370
-1
  6
ByLayer
 10
5.5820849999999993
 20
2.5
 30
0.0
 11
5.5820849999999993
 21
1.1000000000000001
 31
0.0
  0
MTEXT
  5
DF
100
AcDbEntity
100
AcDbMText
  8
Dimension
 62
256
370
-1
  6
ByLayer
 10
4.4000000000000004
 20
7.5
 30
0.0
 40
0.08
 41
100.0
 71
1
 72
2
  3
Notes:\P-Grind\~and\~harden\~cutter,\~finish\~edge\~with\~wetstone\P-4mm\~line\~passes\~through\~7/32"\~OD\~heat\~shrink,\~not\~shrunk\P-Tip\~of\~cutter\~should\~slightly\~penetrate\~stop\~before\~the\~vents\~are\~cleared\~by\~end\~of\~cutter\P-Count
  3
ersinking\~on\~5/16\~threading\~is\~for\~clearance\~of\~COTS\~bolt\~not\~fully\~threaded\P-Plumbers\~puddy\~directly\~under\~igniter\P-Initial\~testing\~done\~with\~approx\~0.4\~grams\~of\~smokless\~powder\P-Final\~I.D.\~of\~body\~to\~be\~done\~with\
  3
~3/8"\~reamer\P-Put\~radius\~on\~sharp\~edge\~parimeter\~of\~cutter\~such\~that\~it\~won't\~bite\~into\~inner\~wall\~of\~body\P-To\~insert\~plastic\~sheer\~pin,\~dip\~in\~PVC\~glue\~such\~that\~the\~plastic\~slightly\~melts\~\P\~\~\~\~\~and\~insert\~
  3
into\~sheer\~pin\~hole\~and\~thru\~cutter\P-Charge\~is\~56\~granuals\~of\~IMR-7828\~cylyndrical\~smokeless\~powder\P-During\~assembly,\~use\~drill\~bit\~or\~music\~wire\~thru\~5/32\~\P\~\~alignment\~hole\~and\~into\~side\~of\~cutter\~to\~align\~cutte
  1
r\~sheer\~pin\~hole
  7
standard
 50
0.0
 73
1
 44
1.0
  0
MTEXT
  5
E0
100
AcDbEntity
100
AcDbMText
  8
Dimension
 62
256
370
-1
  6
ByLayer
 10
1.9258640693613394
 20
1.5024060059174302
 30
0.0
 40
0.1
 41
100.0
 71
1
 72
2
  1
Small\~Radius\Pon\~cutter\~Edges
  7
standard
 50
0.0
 73
0
 44
1.0
  0
MTEXT
  5
E1
100
AcDbEntity
100
AcDbMText
  8
Dimension
 62
256
370
13
  6
CONTINUOUS
 10
2.2000000000000002
 20
3.4000000000000004
 30
0.0
 40
0.2
 41
100.0
 71
7
 72
2
  1
Cutter,
  7
Normal
 50
0.0
 73
1
 44
1.0
  0
LINE
  5
E2
100
AcDbEntity
100
AcDbLine
  8
Stop
 62
256
370
-1
  6
ByLayer
 10
4.9233409076417871
 20
5.0430555555555561
 30
0.0
 11
4.9233409076417871
 21
4.6680555555555561
 31
0.0
  0
LINE
  5
E3
100
AcDbEntity
100
AcDbLine
  8
Body
 62
256
370
5
  6
CONTINUOUS
 10
5.4727100000000002
 20
1.8125
 30
0.0
 11
5.4727100000000002
 21
1.6875
 31
0.0
  0
LINE
  5
E4
100
AcDbEntity
100
AcDbLine
  8
Body
 62
256
370
5
  6
CONTINUOUS
 10
5.6914600000000002
 20
2.3125
 30
0.0
 11
5.6914600000000002
 21
2.1875
 31
0.0
  0
LINE
  5
E5
100
AcDbEntity
100
AcDbLine
  8
Body
 62
256
370
5
  6
CONTINUOUS
 10
5.6914600000000002
 20
1.8125
 30
0.0
 11
5.6914600000000002
 21
1.6875
 31
0.0
  0
LINE
  5
E6
100
AcDbEntity
100
AcDbLine
  8
Body
 62
256
370
5
  6
CONTINUOUS
 10
5.4727100000000002
 20
2.3125
 30
0.0
 11
5.4727100000000002
 21
2.1875
 31
0.0
  0
LINE
  5
E7
100
AcDbEntity
100
AcDbLine
  8
Body
 62
256
370
5
  6
CONTINUOUS
 10
5.0025899999999996
 20
2.3125
 30
0.0
 11
5.0025899999999996
 21
2.1875
 31
0.0
  0
LINE
  5
E8
100
AcDbEntity
100
AcDbLine
  8
Body
 62
256
370
5
  6
CONTINUOUS
 10
5.0025899999999996
 20
1.8125
 30
0.0
 11
5.0025899999999996
 21
1.6875
 31
0.0
  0
LINE
  5
E9
100
AcDbEntity
100
AcDbLine
  8
Stop
 62
256
370
-1
  6
ByLayer
 10
1.2211099999999999
 20
2.1875
 30
0.0
 11
1.2211099999999999
 21
1.8125
 31
0.0
  0
ELLIPSE
  5
EA
100
AcDbEntity
100
AcDbEllipse
  8
Body
 62
256
370
-1
  6
ByLayer
 10
5.4727100000000002
 20
2.0
 30
0.0
 11
0.0728985042800678
 21
0.0
 31
0.0
 40
0.0
 41
0.0
 42
6.2831853071795862
  0
ELLIPSE
  5
EB
100
AcDbEntity
100
AcDbEllipse
  8
Body
 62
256
370
-1
  6
ByLayer
 10
5.5352100000000002
 20
2.09375
 30
0.0
 11
-0.0625
 21
0.0
 31
0.0
 40
0.5123998266083234
 41
0.0
 42
6.2831853071795862
  0
ELLIPSE
  5
EC
100
AcDbEntity
100
AcDbEllipse
  8
Body
 62
256
370
-1
  6
ByLayer
 10
5.5352100000000002
 20
1.90625
 30
0.0
 11
-0.0625
 21
0.0
 31
0.0
 40
0.5123998266083234
 41
0.0
 42
6.2831853071795862
  0
DIMENSION
  5
ED
100
AcDbEntity
  8
Dimension
 62
256
370
13
  6
CONTINUOUS
100
AcDbDimension
 10
5.002586613310112
 20
0.84375
 30
0.0
 11
5.2923358066550552
 21
0.94375
 31
0.0
 70
0
 71
8
 72
1
 41
1.0
 42
0.0
  1

  3
Standard
100
AcDbAlignedDimension
 13
5.002586613310112
 23
1.6875
 33
0.0
 14
5.5820849999999993
 24
1.3761825544933468
 34
0.0
 50
0.0
100
AcDbRotatedDimension
  0
LINE
  5
EE
100
AcDbEntity
100
AcDbLine
  8
Center Lines
 62
256
370
-1
  6
ByLayer
 10
5.5352100000000002
 20
2.5
 30
0.0
 11
5.5352100000000002
 21
1.5460688753822263
 31
0.0
  0
DIMENSION
  5
EF
100
AcDbEntity
  8
Dimension
 62
256
370
-1
  6
ByLayer
100
AcDbDimension
 10
5.5352100000000002
 20
1.1000000000000001
 30
0.0
 11
5.2688983066550561
 21
1.2000000000000002
 31
0.0
 70
0
 71
5
 72
1
 41
1.0
 42
0.0
  1

  3
Standard
100
AcDbAlignedDimension
 13
5.002586613310112
 23
1.6375
 33
0.0
 14
5.5352100000000002
 24
1.5460688753822263
 34
0.0
 50
0.0
100
AcDbRotatedDimension
  0
MTEXT
  5
F0
100
AcDbEntity
100
AcDbMText
  8
Dimension
 62
256
370
13
  6
CONTINUOUS
 10
6.0
 20
3.3111111111111113
 30
0.0
 40
0.2
 41
100.0
 71
7
 72
2
  1
Body
  7
Normal
 50
0.0
 73
1
 44
1.0
  0
LINE
  5
F1
100
AcDbEntity
100
AcDbLine
  8
Body
 62
256
370
-1
  6
ByLayer
 10
7.3938137821521028
 20
1.0625
 30
0.0
 11
7.5232233047033636
 21
1.0625
 31
0.0
  0
LINE
  5
F2
100
AcDbEntity
100
AcDbLine
  8
Body
 62
256
370
-1
  6
ByLayer
 10
7.3938137821521028
 20
0.9375
 30
0.0
 11
7.5232233047033636
 21
0.9375
 31
0.0
  0
LINE
  5
F3
100
AcDbEntity
100
AcDbLine
  8
Body
 62
256
370
-1
  6
ByLayer
 10
7.8767766952966367
 20
1.0625
 30
0.0
 11
8.0061862178478975
 21
1.0625
 31
0.0
  0
LINE
  5
F4
100
AcDbEntity
100
AcDbLine
  8
Body
 62
256
370
-1
  6
ByLayer
 10
7.8767766952966367
 20
0.9375
 30
0.0
 11
8.0061862178478975
 21
0.9375
 31
0.0
  0
MTEXT
  5
F5
100
AcDbEntity
100
AcDbMText
  8
Dimension
 62
256
370
-1
  6
ByLayer
 10
8.2000000000000011
 20
1.1000000000000001
 30
0.0
 40
0.1
 41
100.0
 71
1
 72
2
  1
1/8"\~Manual\PShear\~Pin\~Hole
  7
standard
 50
0.0
 73
1
 44
1.0
  0
LINE
  5
F6
100
AcDbEntity
100
AcDbLine
  8
Stop
 62
256
370
-1
  6
ByLayer
 10
0.97111
 20
2.1875
 30
0.0
 11
1.2211099999999999
 21
2.1875
 31
0.0
  0
LINE
  5
F7
100
AcDbEntity
100
AcDbLine
  8
Stop
 62
256
370
-1
  6
ByLayer
 10
0.97111
 20
2.1875
 30
0.0
 11
0.97111
 21
1.8125
 31
0.0
  0
LINE
  5
F8
100
AcDbEntity
100
AcDbLine
  8
Stop
 62
256
370
-1
  6
ByLayer
 10
0.97111
 20
1.8125
 30
0.0
 11
1.2211099999999999
 21
1.8125
 31
0.0
  0
DIMENSION
  5
F9
100
AcDbEntity
  8
Dimension
 62
256
370
-1
  6
ByLayer
100
AcDbDimension
 10
1.2211099999999999
 20
2.4000000000000004
 30
0.0
 11
1.0961099999999999
 21
2.5000000000000004
 31
0.0
 70
0
 71
5
 72
1
 41
1.0
 42
0.0
  1

  3
Standard
100
AcDbAlignedDimension
 13
0.97111
 23
2.1875
 33
0.0
 14
1.2211099999999999
 24
2.1875
 34
0.0
 50
0.0
100
AcDbRotatedDimension
  0
LINE
  5
FA
100
AcDbEntity
100
AcDbLine
  8
Stop
 62
256
370
-1
  6
ByLayer
 10
4.9233409076417871
 20
5.0430555555555561
 30
0.0
 11
4.9233409076417871
 21
4.6680555555555561
 31
0.0
  0
LINE
  5
FB
100
AcDbEntity
100
AcDbLine
  8
Stop
 62
256
370
-1
  6
ByLayer
 10
4.6733409076417871
 20
5.0430555555555561
 30
0.0
 11
4.9233409076417871
 21
5.0430555555555561
 31
0.0
  0
LINE
  5
FC
100
AcDbEntity
100
AcDbLine
  8
Stop
 62
256
370
-1
  6
ByLayer
 10
4.6733409076417871
 20
5.0430555555555561
 30
0.0
 11
4.6733409076417871
 21
4.6680555555555561
 31
0.0
  0
LINE
  5
FD
100
AcDbEntity
100
AcDbLine
  8
Stop
 62
256
370
-1
  6
ByLayer
 10
4.6733409076417871
 20
4.6680555555555561
 30
0.0
 11
4.9233409076417871
 21
4.6680555555555561
 31
0.0
  0
CIRCLE
  5
FE
100
AcDbEntity
100
AcDbCircle
  8
Body
 62
256
370
-1
  6
ByLayer
 10
5.1555334312076715
 20
2.0
 30
0.0
 40
0.068
  0
LINE
  5
FF
100
AcDbEntity
100
AcDbLine
  8
Center Lines
 62
256
370
-1
  6
ByLayer
 10
5.1555334312076715
 20
2.3789097694851828
 30
0.0
 11
5.1555334312076715
 21
1.6320880959500803
 31
0.0
  0
DIMENSION
  5
100
100
AcDbEntity
  8
Dimension
 62
256
370
-1
  6
ByLayer
100
AcDbDimension
 10
5.2525899999999996
 20
2.6000000000000001
 30
0.0
 11
5.3499778756521161
 21
2.7000000000000002
 31
0.0
 70
0
 71
5
 72
1
 41
1.0
 42
0.0
  1

  3
Standard
100
AcDbAlignedDimension
 13
5.002586613310112
 23
2.3624999999999998
 33
0.0
 14
5.1555334312076715
 24
2.3789097694851828
 34
0.0
 50
0.0
100
AcDbRotatedDimension
  0
LINE
  5
101
100
AcDbEntity
100
AcDbLine
  8
CutterOff
 62
256
370
-1
  6
ByLayer
 10
2.5587599999999999
 20
2.1875
 30
0.0
 11
2.5587599999999999
 21
1.8125
 31
0.0
  0
MTEXT
  5
102
100
AcDbEntity
100
AcDbMText
  8
Dimension
 62
256
370
13
  6
CONTINUOUS
 10
5.4933532339915301
 20
5.4353452800951043
 30
0.0
 40
0.1
 41
100.0
 71
7
 72
2
  1
(Vent\~Holes)\~#53\P(Shear\~Pin)\~1/8"
  7
Standard
 50
0.0
 73
1
 44
1.0
  0
LINE
  5
103
100
AcDbEntity
100
AcDbLine
  8
CutterOff
 62
256
370
-1
  6
ByLayer
 10
2.9337599999999999
 20
2.1875
 30
0.0
 11
2.9337599999999999
 21
1.8125
 31
0.0
  0
LINE
  5
104
100
AcDbEntity
100
AcDbLine
  8
CutterOff
 62
256
370
-1
  6
ByLayer
 10
2.6837599999999999
 20
2.1875
 30
0.0
 11
2.6837599999999999
 21
1.8125
 31
0.0
  0
LINE
  5
105
100
AcDbEntity
100
AcDbLine
  8
Center Lines
 62
256
370
-1
  6
ByLayer
 10
2.6212600000000004
 20
2.2399775390951793
 30
0.0
 11
2.6212600000000004
 21
1.8
 31
0.0
  0
DIMENSION
  5
106
100
AcDbEntity
  8
Dimension
 62
256
370
-1
  6
ByLayer
100
AcDbDimension
 10
2.6000000000000001
 20
2.8000000000000003
 30
0.0
 11
2.4276300000000002
 21
2.9000000000000004
 31
0.0
 70
0
 71
5
 72
1
 41
1.0
 42
0.0
  1

  3
Standard
100
AcDbAlignedDimension
 13
2.234
 23
2.0
 33
0.0
 14
2.6212600000000004
 24
2.2399775390951793
 34
0.0
 50
0.0
100
AcDbRotatedDimension
  0
ELLIPSE
  5
107
100
AcDbEntity
100
AcDbEllipse
  8
Body
 62
256
370
-1
  6
ByLayer
 10
6.1415743424471323
 20
1.8520000001356265
 30
0.0
 11
0.0317156575528141
 21
0.0
 31
0.0
 40
0.5123652244302422
 41
0.0
 42
6.2831853071795862
  0
CIRCLE
  5
108
100
AcDbEntity
100
AcDbCircle
  8
Body
 62
256
370
-1
  6
ByLayer
 10
6.1415743424471323
 20
2.0
 30
0.0
 40
0.0317156575528141
  0
ELLIPSE
  5
109
100
AcDbEntity
100
AcDbEllipse
  8
Body
 62
256
370
-1
  6
ByLayer
 10
6.1415743424471323
 20
2.140625
 30
0.0
 11
0.0317156575528141
 21
0.0
 31
0.0
 40
0.5123652244302422
 41
0.0
 42
6.2831853071795862
  0
LINE
  5
10A
100
AcDbEntity
100
AcDbLine
  8
Body
 62
256
370
-1
  6
ByLayer
 10
6.1732899999999464
 20
2.3125
 30
0.0
 11
6.1732899999999464
 21
2.1875
 31
0.0
  0
LINE
  5
10B
100
AcDbEntity
100
AcDbLine
  8
Body
 62
256
370
-1
  6
ByLayer
 10
6.1732899999999464
 20
1.6875
 30
0.0
 11
6.1732899999999464
 21
1.8125
 31
0.0
  0
LINE
  5
10C
100
AcDbEntity
100
AcDbLine
  8
Body
 62
256
370
-1
  6
ByLayer
 10
5.4626386131517126
 20
5.165423020649107
 30
0.0
 11
5.4626386131517126
 21
5.165423020649107
 31
0.0
  0
LINE
  5
10D
100
AcDbEntity
100
AcDbLine
  8
Body
 62
256
370
-1
  6
ByLayer
 10
5.4626386131517126
 20
5.165423020649107
 30
0.0
 11
5.4626386131517126
 21
5.165423020649107
 31
0.0
  0
LINE
  5
10E
100
AcDbEntity
100
AcDbLine
  8
Body
 62
256
370
-1
  6
ByLayer
 10
6.9822040897442275
 20
5.1680555555555561
 30
0.0
 11
6.9822040897442275
 21
4.5430555555555561
 31
0.0
  0
LINE
  5
10F
100
AcDbEntity
100
AcDbLine
  8
Body
 62
256
370
-1
  6
ByLayer
 10
5.4980974764340624
 20
5.1680555555555561
 30
0.0
 11
5.4980974764340624
 21
5.0430555555555561
 31
0.0
  0
LINE
  5
110
100
AcDbEntity
100
AcDbLine
  8
Body
 62
256
370
-1
  6
ByLayer
 10
5.4980974764340624
 20
4.6680555555555561
 30
0.0
 11
5.4980974764340624
 21
4.5430555555555561
 31
0.0
  0
LINE
  5
111
100
AcDbEntity
100
AcDbLine
  8
Body
 62
256
370
-1
  6
ByLayer
 10
6.9822040897442275
 20
5.0430555555555561
 30
0.0
 11
6.8800130920976637
 21
4.9840555555555559
 31
0.0
  0
LINE
  5
112
100
AcDbEntity
100
AcDbLine
  8
Body
 62
256
370
-1
  6
ByLayer
 10
6.9822040897442275
 20
4.6680555555555561
 30
0.0
 11
6.8793202717746365
 21
4.7274555555555562
 31
0.0
  0
LINE
  5
113
100
AcDbEntity
100
AcDbLine
  8
Body
 62
256
370
5
  6
CONTINUOUS
 10
4.4523974764341157
 20
5.1680555555555561
 30
0.0
 11
6.982207476434116
 21
5.1680555555555561
 31
0.0
  0
LINE
  5
114
100
AcDbEntity
100
AcDbLine
  8
Body
 62
256
370
5
  6
CONTINUOUS
 10
4.4523974764341157
 20
4.5430555555555561
 30
0.0
 11
6.982207476434116
 21
4.5430555555555561
 31
0.0
  0
LINE
  5
115
100
AcDbEntity
100
AcDbLine
  8
Body
 62
256
370
5
  6
CONTINUOUS
 10
4.9225174764341162
 20
4.6680555555555561
 30
0.0
 11
4.9225174764341162
 21
4.5430555555555561
 31
0.0
  0
LINE
  5
116
100
AcDbEntity
100
AcDbLine
  8
Body
 62
256
370
5
  6
CONTINUOUS
 10
5.1412674764341162
 20
5.1680555555555561
 30
0.0
 11
5.1412674764341162
 21
5.0430555555555561
 31
0.0
  0
LINE
  5
117
100
AcDbEntity
100
AcDbLine
  8
Body
 62
256
370
5
  6
CONTINUOUS
 10
5.1412674764341162
 20
4.6680555555555561
 30
0.0
 11
5.1412674764341162
 21
4.5430555555555561
 31
0.0
  0
LINE
  5
118
100
AcDbEntity
100
AcDbLine
  8
Body
 62
256
370
5
  6
CONTINUOUS
 10
4.9225174764341162
 20
5.1680555555555561
 30
0.0
 11
4.9225174764341162
 21
5.0430555555555561
 31
0.0
  0
LINE
  5
119
100
AcDbEntity
100
AcDbLine
  8
Body
 62
256
370
5
  6
CONTINUOUS
 10
4.4523974764341157
 20
5.1680555555555561
 30
0.0
 11
4.4523974764341157
 21
5.0430555555555561
 31
0.0
  0
LINE
  5
11A
100
AcDbEntity
100
AcDbLine
  8
Body
 62
256
370
5
  6
CONTINUOUS
 10
4.4523974764341157
 20
4.6680555555555561
 30
0.0
 11
4.4523974764341157
 21
4.5430555555555561
 31
0.0
  0
ELLIPSE
  5
11B
100
AcDbEntity
100
AcDbEllipse
  8
Body
 62
256
370
-1
  6
ByLayer
 10
4.9225174764341162
 20
4.8555555555555561
 30
0.0
 11
0.0728985042800678
 21
0.0
 31
0.0
 40
0.0
 41
0.0
 42
6.2831853071795862
  0
ELLIPSE
  5
11C
100
AcDbEntity
100
AcDbEllipse
  8
Body
 62
256
370
-1
  6
ByLayer
 10
4.9850174764341162
 20
4.9493055555555561
 30
0.0
 11
-0.0625
 21
0.0
 31
0.0
 40
0.5123998266083234
 41
0.0
 42
6.2831853071795862
  0
ELLIPSE
  5
11D
100
AcDbEntity
100
AcDbEllipse
  8
Body
 62
256
370
-1
  6
ByLayer
 10
4.9850174764341162
 20
4.7618055555555561
 30
0.0
 11
-0.0625
 21
0.0
 31
0.0
 40
0.5123998266083234
 41
0.0
 42
6.2831853071795862
  0
LINE
  5
11E
100
AcDbEntity
100
AcDbLine
  8
Body
 62
256
370
5
  6
CONTINUOUS
 10
6.1650574764341162
 20
4.8555555555555561
 30
0.0
 11
6.0523974764341162
 21
5.0430555555555561
 31
0.0
  0
LINE
  5
11F
100
AcDbEntity
100
AcDbLine
  8
Body
 62
256
370
5
  6
CONTINUOUS
 10
6.1650574764341162
 20
4.8555555555555561
 30
0.0
 11
6.0523974764341162
 21
4.6680555555555561
 31
0.0
  0
LINE
  5
120
100
AcDbEntity
100
AcDbLine
  8
Body
 62
256
370
-1
  6
ByLayer
 10
6.0919859428034817
 20
4.9840555555555559
 30
0.0
 11
6.8800130920976637
 21
4.9840555555555559
 31
0.0
  0
LINE
  5
121
100
AcDbEntity
100
AcDbLine
  8
Body
 62
256
370
-1
  6
ByLayer
 10
6.0878806595619581
 20
4.7274555555555562
 30
0.0
 11
6.8793202717746365
 21
4.7274555555555562
 31
0.0
  0
LINE
  5
122
100
AcDbEntity
100
AcDbLine
  8
Body
 62
256
370
5
  6
CONTINUOUS
 10
4.4523974764341157
 20
4.6680555555555561
 30
0.0
 11
6.0523974764341162
 21
4.6680555555555561
 31
0.0
  0
LINE
  5
123
100
AcDbEntity
100
AcDbLine
  8
Body
 62
256
370
5
  6
CONTINUOUS
 10
4.4523974764341157
 20
5.0430555555555561
 30
0.0
 11
6.0523974764341162
 21
5.0430555555555561
 31
0.0
  0
CIRCLE
  5
124
100
AcDbEntity
100
AcDbCircle
  8
Body
 62
256
370
-1
  6
ByLayer
 10
4.6053409076417875
 20
4.8555555555555561
 30
0.0
 40
0.068
  0
ELLIPSE
  5
125
100
AcDbEntity
100
AcDbEllipse
  8
Body
 62
256
370
-1
  6
ByLayer
 10
5.5913818188812483
 20
4.707555555691183
 30
0.0
 11
0.0317156575528141
 21
0.0
 31
0.0
 40
0.5123652244302422
 41
0.0
 42
6.2831853071795862
  0
CIRCLE
  5
126
100
AcDbEntity
100
AcDbCircle
  8
Body
 62
256
370
-1
  6
ByLayer
 10
5.5913818188812483
 20
4.8555555555555561
 30
0.0
 40
0.0317156575528141
  0
ELLIPSE
  5
127
100
AcDbEntity
100
AcDbEllipse
  8
Body
 62
256
370
-1
  6
ByLayer
 10
5.5913818188812483
 20
4.9961805555555561
 30
0.0
 11
0.0317156575528141
 21
0.0
 31
0.0
 40
0.5123652244302422
 41
0.0
 42
6.2831853071795862
  0
LINE
  5
128
100
AcDbEntity
100
AcDbLine
  8
Body
 62
256
370
-1
  6
ByLayer
 10
5.6230974764340624
 20
5.1680555555555561
 30
0.0
 11
5.6230974764340624
 21
5.0430555555555561
 31
0.0
  0
LINE
  5
129
100
AcDbEntity
100
AcDbLine
  8
Body
 62
256
370
-1
  6
ByLayer
 10
5.6230974764340624
 20
4.5430555555555561
 30
0.0
 11
5.6230974764340624
 21
4.6680555555555561
 31
0.0
  0
LINE
  5
12A
100
AcDbEntity
100
AcDbLine
  8
CutterOff
 62
256
370
-1
  6
ByLayer
 10
5.1733374764340621
 20
4.8555555555555561
 30
0.0
 11
5.4980970028532266
 21
5.0430555555555561
 31
0.0
  0
LINE
  5
12B
100
AcDbEntity
100
AcDbLine
  8
CutterOff
 62
256
370
-1
  6
ByLayer
 10
5.4980974764340624
 20
5.0430555555555561
 30
0.0
 11
5.7480974764340624
 21
5.0430555555555561
 31
0.0
  0
LINE
  5
12C
100
AcDbEntity
100
AcDbLine
  8
CutterOff
 62
256
370
-1
  6
ByLayer
 10
5.4980970028532266
 20
4.6680555555555561
 30
0.0
 11
5.7480974764340624
 21
4.6680555555555561
 31
0.0
  0
LINE
  5
12D
100
AcDbEntity
100
AcDbLine
  8
CutterOff
 62
256
370
-1
  6
ByLayer
 10
5.1733374764340621
 20
4.8555555555555561
 30
0.0
 11
5.4980970028532266
 21
5.0430555555555561
 31
0.0
  0
LINE
  5
12E
100
AcDbEntity
100
AcDbLine
  8
CutterOff
 62
256
370
-1
  6
ByLayer
 10
5.1733374764340621
 20
4.8555555555555561
 30
0.0
 11
5.4980970028532266
 21
4.6680555555555561
 31
0.0
  0
LINE
  5
12F
100
AcDbEntity
100
AcDbLine
  8
CutterOff
 62
256
370
-1
  6
ByLayer
 10
5.1733374764340621
 20
4.8555555555555561
 30
0.0
 11
5.4895874764340649
 21
5.0381425781867764
 31
0.0
  0
LINE
  5
130
100
AcDbEntity
100
AcDbLine
  8
CutterOff
 62
256
370
-1
  6
ByLayer
 10
5.4980974764340624
 20
5.0430555555555561
 30
0.0
 11
5.4980974764340624
 21
4.6680555555555561
 31
0.0
  0
LINE
  5
131
100
AcDbEntity
100
AcDbLine
  8
CutterOff
 62
256
370
-1
  6
ByLayer
 10
5.7480974764340633
 20
5.0430555555555561
 30
0.0
 11
5.8730974764340624
 21
5.0430555555555561
 31
0.0
  0
LINE
  5
132
100
AcDbEntity
100
AcDbLine
  8
CutterOff
 62
256
370
-1
  6
ByLayer
 10
5.7480974764340633
 20
4.6680555555555561
 30
0.0
 11
5.8730974764340624
 21
4.6680555555555561
 31
0.0
  0
LINE
  5
133
100
AcDbEntity
100
AcDbLine
  8
CutterOff
 62
256
370
-1
  6
ByLayer
 10
5.8730974764340624
 20
5.0430555555555561
 30
0.0
 11
5.8730974764340624
 21
4.6680555555555561
 31
0.0
  0
LINE
  5
134
100
AcDbEntity
100
AcDbLine
  8
CutterOff
 62
256
370
-1
  6
ByLayer
 10
5.6230974764340624
 20
5.0430555555555561
 30
0.0
 11
5.6230974764340624
 21
4.6680555555555561
 31
0.0
  0
LINE
  5
135
100
AcDbEntity
100
AcDbLine
  8
CutterOff
 62
256
370
-1
  6
ByLayer
 10
2.5587599999999999
 20
2.1875002734220228
 30
0.0
 11
2.9337599999999999
 21
2.1875
 31
0.0
  0
LINE
  5
136
100
AcDbEntity
100
AcDbLine
  8
CutterOff
 62
256
370
-1
  6
ByLayer
 10
2.9337599999999999
 20
1.8125
 30
0.0
 11
2.5587599999999999
 21
1.8124997265779772
 31
0.0
  0
LINE
  5
137
100
AcDbEntity
100
AcDbLine
  8
CutterOff
 62
256
370
-1
  6
ByLayer
 10
4.9233409076417871
 20
4.8555555555555561
 30
0.0
 11
5.2481004340609516
 21
5.0430555555555561
 31
0.0
  0
LINE
  5
138
100
AcDbEntity
100
AcDbLine
  8
CutterOff
 62
256
370
-1
  6
ByLayer
 10
4.9233409076417871
 20
4.8555555555555561
 30
0.0
 11
5.2481004340609516
 21
5.0430555555555561
 31
0.0
  0
LINE
  5
139
100
AcDbEntity
100
AcDbLine
  8
CutterOn
 62
256
370
-1
  6
ByLayer
 10
5.2481009076417866
 20
5.0430555555555561
 30
0.0
 11
5.4981009076417866
 21
5.0430555555555561
 31
0.0
  0
LINE
  5
13A
100
AcDbEntity
100
AcDbLine
  8
CutterOn
 62
256
370
-1
  6
ByLayer
 10
5.4981009076417866
 20
5.0430555555555561
 30
0.0
 11
5.6231009076417866
 21
5.0430555555555561
 31
0.0
  0
LINE
  5
13B
100
AcDbEntity
100
AcDbLine
  8
CutterOn
 62
256
370
-1
  6
ByLayer
 10
5.6231009076417866
 20
5.0430555555555561
 30
0.0
 11
5.6231009076417866
 21
4.6680555555555561
 31
0.0
  0
LINE
  5
13C
100
AcDbEntity
100
AcDbLine
  8
CutterOn
 62
256
370
-1
  6
ByLayer
 10
5.3731009076417866
 20
5.0430555555555561
 30
0.0
 11
5.3731009076417866
 21
4.6680555555555561
 31
0.0
  0
LINE
  5
13D
100
AcDbEntity
100
AcDbLine
  8
CutterOn
 62
256
370
-1
  6
ByLayer
 10
5.2481009076417866
 20
5.0430555555555561
 30
0.0
 11
5.2481009076417866
 21
4.6680555555555561
 31
0.0
  0
LINE
  5
13E
100
AcDbEntity
100
AcDbLine
  8
CutterOn
 62
256
370
-1
  6
ByLayer
 10
4.9233409076417871
 20
4.8555555555555561
 30
0.0
 11
5.2395909076417864
 21
5.0381455555555554
 31
0.0
  0
LINE
  5
13F
100
AcDbEntity
100
AcDbLine
  8
CutterOn
 62
256
370
-1
  6
ByLayer
 10
4.9233409076417871
 20
4.8555555555555561
 30
0.0
 11
5.2481009076417866
 21
4.6680555555555561
 31
0.0
  0
LINE
  5
140
100
AcDbEntity
100
AcDbLine
  8
CutterOn
 62
256
370
-1
  6
ByLayer
 10
5.2481009076417866
 20
4.6680555555555561
 30
0.0
 11
5.4981009076417866
 21
4.6680555555555561
 31
0.0
  0
LINE
  5
141
100
AcDbEntity
100
AcDbLine
  8
CutterOn
 62
256
370
-1
  6
ByLayer
 10
5.4981009076417866
 20
4.6680555555555561
 30
0.0
 11
5.6231009076417866
 21
4.6680555555555561
 31
0.0
  0
LINE
  5
142
100
AcDbEntity
100
AcDbLine
  8
Wadding
 62
1
420
16711680
370
5
  6
CONTINUOUS
 10
5.9001774016332629
 20
5.0055555555555555
 30
0.0
 11
5.9501774016332636
 21
4.9555555555555566
 31
0.0
  0
LINE
  5
143
100
AcDbEntity
100
AcDbLine
  8
Wadding
 62
1
420
16711680
370
5
  6
CONTINUOUS
 10
5.9501774016332636
 20
4.9555555555555566
 30
0.0
 11
5.9001774016332629
 21
4.9055555555555559
 31
0.0
  0
LINE
  5
144
100
AcDbEntity
100
AcDbLine
  8
Wadding
 62
1
420
16711680
370
5
  6
CONTINUOUS
 10
5.9001774016332629
 20
4.9055555555555559
 30
0.0
 11
5.9501774016332636
 21
4.8555555555555561
 31
0.0
  0
LINE
  5
145
100
AcDbEntity
100
AcDbLine
  8
Wadding
 62
1
420
16711680
370
5
  6
CONTINUOUS
 10
5.9501774016332636
 20
4.8555555555555561
 30
0.0
 11
5.9001774016332629
 21
4.8055555555555562
 31
0.0
  0
LINE
  5
146
100
AcDbEntity
100
AcDbLine
  8
Wadding
 62
1
420
16711680
370
5
  6
CONTINUOUS
 10
5.9001774016332629
 20
4.8055555555555562
 30
0.0
 11
5.9501774016332636
 21
4.7555555555555555
 31
0.0
  0
LINE
  5
147
100
AcDbEntity
100
AcDbLine
  8
Wadding
 62
1
420
16711680
370
5
  6
CONTINUOUS
 10
5.9501774016332636
 20
4.7555555555555555
 30
0.0
 11
5.9001774016332629
 21
4.7055555555555566
 31
0.0
  0
LINE
  5
148
100
AcDbEntity
100
AcDbLine
  8
Igniter
 62
13
420
10834514
370
5
  6
CONTINUOUS
 10
3.6000000000000001
 20
2.1215000000000002
 30
0.0
 11
4.1500000000000004
 21
2.1215000000000002
 31
0.0
  0
LINE
  5
149
100
AcDbEntity
100
AcDbLine
  8
Igniter
 62
13
420
10834514
370
5
  6
CONTINUOUS
 10
3.6000000000000001
 20
1.8785000000000001
 30
0.0
 11
4.1500000000000004
 21
1.8785000000000001
 31
0.0
  0
LINE
  5
14A
100
AcDbEntity
100
AcDbLine
  8
Igniter
 62
13
420
10834514
370
5
  6
CONTINUOUS
 10
4.1500000000000004
 20
2.1215000000000002
 30
0.0
 11
4.1500000000000004
 21
1.8785000000000001
 31
0.0
  0
DIMENSION
  5
14B
100
AcDbEntity
  8
Dimension
 62
256
370
13
  6
CONTINUOUS
100
AcDbDimension
 10
3.6000000000000001
 20
2.5
 30
0.0
 11
3.875
 21
2.6000000000000001
 31
0.0
 70
0
 71
8
 72
1
 41
1.0
 42
0.0
  1

  3
Standard
100
AcDbAlignedDimension
 13
3.6000000000000001
 23
2.1215000000000002
 33
0.0
 14
4.1500000000000004
 24
2.1215000000000002
 34
0.0
 50
0.0
100
AcDbRotatedDimension
  0
LINE
  5
14C
100
AcDbEntity
100
AcDbLine
  8
Igniter
 62
13
420
10834514
370
5
  6
CONTINUOUS
 10
5.9822522358814485
 20
4.9770555555555562
 30
0.0
 11
5.9822522358814485
 21
4.7340555555555559
 31
0.0
  0
LINE
  5
14D
100
AcDbEntity
100
AcDbLine
  8
Igniter
 62
13
420
10834514
370
5
  6
CONTINUOUS
 10
5.9822522358814485
 20
4.9770555555555562
 30
0.0
 11
6.5322522358814492
 21
4.9770555555555562
 31
0.0
  0
LINE
  5
14E
100
AcDbEntity
100
AcDbLine
  8
Igniter
 62
13
420
10834514
370
5
  6
CONTINUOUS
 10
5.9822522358814485
 20
4.7340555555555559
 30
0.0
 11
6.5322522358814492
 21
4.7340555555555559
 31
0.0
  0
LINE
  5
14F
100
AcDbEntity
100
AcDbLine
  8
Igniter
 62
13
420
10834514
370
5
  6
CONTINUOUS
 10
6.5322522358814492
 20
4.9770555555555562
 30
0.0
 11
6.5322522358814492
 21
4.7340555555555559
 31
0.0
  0
MTEXT
  5
150
100
AcDbEntity
100
AcDbMText
  8
Dimension
 62
256
370
-1
  6
ByLayer
 10
5.0
 20
4.3000000000000007
 30
0.0
 40
0.1
 41
100.0
 71
1
 72
2
  1
1/8"\~Vent
  7
standard
 50
0.0
 73
0
 44
1.0
  0
LINE
  5
151
100
AcDbEntity
100
AcDbLine
  8
Dimension
 62
256
370
-1
  6
ByLayer
 10
5.0515271488299582
 20
4.35686599687988
 30
0.0
 11
4.9850174764341162
 21
4.7297805663925363
 31
0.0
  0
LINE
  5
152
100
AcDbEntity
100
AcDbLine
  8
Dimension
 62
256
370
-1
  6
ByLayer
 10
4.9850174764341162
 20
4.7297805663925363
 30
0.0
 11
4.9621717880212284
 21
4.6907420831750501
 31
0.0
  0
LINE
  5
153
100
AcDbEntity
100
AcDbLine
  8
Dimension
 62
256
370
-1
  6
ByLayer
 10
4.9855709005079678
 20
4.7281806631538332
 30
0.0
 11
5.0214495396543013
 21
4.7079014323319921
 31
0.0
  0
LINE
  5
154
100
AcDbEntity
100
AcDbLine
  8
Center Lines
 62
256
370
-1
  6
ByLayer
 10
6.1415743424471314
 20
2.6000000000000001
 30
0.0
 11
6.1415743424471314
 21
0.3
 31
0.0
  0
DIMENSION
  5
155
100
AcDbEntity
  8
Dimension
 62
256
370
13
  6
CONTINUOUS
100
AcDbDimension
 10
5.0
 20
0.4
 30
0.0
 11
5.5720804778786217
 21
0.5
 31
0.0
 70
0
 71
8
 72
1
 41
1.0
 42
0.0
  1

  3
Standard
100
AcDbAlignedDimension
 13
5.002586613310112
 23
1.6875
 33
0.0
 14
6.1415743424471314
 24
1.60517911659033
 34
0.0
 50
0.0
100
AcDbRotatedDimension
  0
LINE
  5
156
100
AcDbEntity
100
AcDbLine
  8
Center Lines
 62
256
370
-1
  6
ByLayer
 10
6.1107899999999464
 20
2.3633103611606976
 30
0.0
 11
6.1107899999999464
 21
1.5968571342721389
 31
0.0
  0
DIMENSION
  5
157
100
AcDbEntity
  8
Dimension
 62
256
370
-1
  6
ByLayer
100
AcDbDimension
 10
6.0
 20
0.6
 30
0.0
 11
5.5566883066550297
 21
0.7
 31
0.0
 70
0
 71
5
 72
1
 41
1.0
 42
0.0
  1

  3
Standard
100
AcDbAlignedDimension
 13
5.002586613310112
 23
1.6375
 33
0.0
 14
6.1107899999999464
 24
1.6497934243983883
 34
0.0
 50
0.0
100
AcDbRotatedDimension
  0
DIMENSION
  5
158
100
AcDbEntity
  8
Dimension
 62
256
370
-1
  6
ByLayer
100
AcDbDimension
 10
2.8360005128509216
 20
3.0831051151770743
 30
0.0
 11
2.5838799999999997
 21
3.1831051151770744
 31
0.0
 70
0
 71
5
 72
1
 41
1.0
 42
0.0
  1

  3
Standard
100
AcDbAlignedDimension
 13
2.234
 23
2.0
 33
0.0
 14
2.9337599999999999
 24
2.1875
 34
0.0
 50
0.0
100
AcDbRotatedDimension
  0
MTEXT
  5
159
100
AcDbEntity
100
AcDbMText
  8
Dimension
 62
256
370
13
  6
CONTINUOUS
 10
1.9000000000000001
 20
0.9
 30
0.0
 40
0.1
 41
100.0
 71
7
 72
2
  1
Drill\~for\~Shear\~Pin:\~#29
  7
Standard
 50
0.0
 73
1
 44
1.0
  0
LINE
  5
15A
100
AcDbEntity
100
AcDbLine
  8
Body
 62
256
370
-1
  6
ByLayer
 10
6.7152500000000002
 20
2.0
 30
0.0
 11
6.5652499999999998
 21
2.0
 31
0.0
  0
LINE
  5
15B
100
AcDbEntity
100
AcDbLine
  8
Body
 62
256
370
5
  6
CONTINUOUS
 10
6.5652499999999989
 20
2.0
 30
0.0
 11
6.4525899999999989
 21
2.1875
 31
0.0
  0
LINE
  5
15C
100
AcDbEntity
100
AcDbLine
  8
Body
 62
256
370
5
  6
CONTINUOUS
 10
6.5652499999999989
 20
2.0
 30
0.0
 11
6.4525899999999989
 21
1.8125
 31
0.0
  0
LINE
  5
15D
100
AcDbEntity
100
AcDbLine
  8
Body
 62
256
370
-1
  6
ByLayer
 10
7.3823966133101102
 20
1.8125
 30
0.0
 11
7.2795127953405192
 21
1.8718999999999999
 31
0.0
  0
LINE
  5
15E
100
AcDbEntity
100
AcDbLine
  8
Body
 62
256
370
-1
  6
ByLayer
 10
6.4880731831278409
 20
1.8718999999999999
 30
0.0
 11
7.2795127953405192
 21
1.8718999999999999
 31
0.0
  0
LINE
  5
15F
100
AcDbEntity
100
AcDbLine
  8
Body
 62
256
370
-1
  6
ByLayer
 10
7.3823966133101102
 20
2.1875
 30
0.0
 11
7.2802056156635464
 21
2.1284999999999998
 31
0.0
  0
LINE
  5
160
100
AcDbEntity
100
AcDbLine
  8
Body
 62
256
370
-1
  6
ByLayer
 10
6.4921784663693645
 20
2.1284999999999998
 30
0.0
 11
7.2802056156635464
 21
2.1284999999999998
 31
0.0
  0
LINE
  5
161
100
AcDbEntity
100
AcDbLine
  8
Body
 62
256
370
5
  6
CONTINUOUS
 10
5.0025899999999996
 20
2.1875
 30
0.0
 11
6.4525899999999989
 21
2.1875
 31
0.0
  0
LINE
  5
162
100
AcDbEntity
100
AcDbLine
  8
Body
 62
256
370
5
  6
CONTINUOUS
 10
5.0025899999999996
 20
1.8125
 30
0.0
 11
6.4525899999999989
 21
1.8125
 31
0.0
  0
LINE
  5
163
100
AcDbEntity
100
AcDbLine
  8
Body
 62
256
370
-1
  6
ByLayer
 10
7.3823966133101102
 20
2.3125
 30
0.0
 11
7.3823966133101102
 21
1.6875
 31
0.0
  0
LINE
  5
164
100
AcDbEntity
100
AcDbLine
  8
Body
 62
256
370
5
  6
CONTINUOUS
 10
5.0025899999999996
 20
2.3125
 30
0.0
 11
7.3823966133101102
 21
2.3125
 31
0.0
  0
LINE
  5
165
100
AcDbEntity
100
AcDbLine
  8
Body
 62
256
370
5
  6
CONTINUOUS
 10
5.0025899999999996
 20
1.6875
 30
0.0
 11
7.3823966133101102
 21
1.6875
 31
0.0
  0
DIMENSION
  5
166
100
AcDbEntity
  8
Dimension
 62
256
370
-1
  6
ByLayer
100
AcDbDimension
 10
6.9000000000000004
 20
0.1
 30
0.0
 11
5.7275883066550559
 21
0.2
 31
0.0
 70
0
 71
5
 72
0
 41
1.0
 42
0.0
  1

  3
Standard
100
AcDbAlignedDimension
 13
5.002586613310112
 23
1.6875
 33
0.0
 14
6.4525899999999989
 24
1.8125
 34
0.0
 50
0.0
100
AcDbRotatedDimension
  0
DIMENSION
  5
167
100
AcDbEntity
  8
Dimension
 62
256
370
-1
  6
ByLayer
100
AcDbDimension
 10
7.2000000000000002
 20
3.1000000000000001
 30
0.0
 11
6.1924916133101107
 21
3.2000000000000002
 31
0.0
 70
0
 71
5
 72
0
 41
1.0
 42
0.0
  1

  3
Standard
100
AcDbAlignedDimension
 13
5.002586613310112
 23
2.3125
 33
0.0
 14
7.3823966133101102
 24
2.3125
 34
0.0
 50
0.0
100
AcDbRotatedDimension
  0
MTEXT
  5
168
100
AcDbEntity
100
AcDbMText
  8
Dimension
 62
256
370
13
  6
CONTINUOUS
 10
2.8000000000000003
 20
5.0
 30
0.0
 40
0.1
 41
100.0
 71
7
 72
2
  1
(Stop\~screw,\~countersink)\P#35
  7

 50
0.0
 73
1
 44
1.0
  0
LINE
  5
169
100
AcDbEntity
100
AcDbLine
  8
Dimension
 62
256
370
13
  6
CONTINUOUS
 10
4.0284863841907317
 20
5.0179139500086754
 30
0.0
 11
3.1000000000000001
 21
5.0179139500086754
 31
0.0
  0
MTEXT
  5
16A
100
AcDbEntity
100
AcDbMText
  8
Dimension
 62
256
370
-1
  6
ByLayer
 10
0.8
 20
6.7999999999999998
 30
0.0
 40
0.08
 41
100.0
 71
1
 72
2
  3
Materials:\P-Cutter:\~O2\~hardening\~tool\~steel,\~round\~bar\P-Body:\~6061-T6\~Aluminum\P-Bolt:\~off\~the\~shelf\~hardware\~store\~bolt\P-Nylon\~Washer\~between\~bolt\~and\~body\P\~\~\~\~O.D.\~=\~0.5,\~I.D.\~=\~5/16,\~thickness=0.062\P-Stop\~Screw:\
  1
~Stainless\~Steel,\~6-32,\~counter\~sunk,\~1.0"\~long\P-Stop:\~UHMWPE\~or\~HDPE\~3/8\~round\~rod\P-Sheer\~Pin:\~Soft\~plastic\~rod,\~O.D.=0.060"\P-3/16\~Clear\~heat\~shrink\~tupe\P-REI\~accessory\~line,\~O.D.\~approx\~0.175"\P\P
  7
standard
 50
0.0
 73
1
 44
1.0
  0
MTEXT
  5
16B
100
AcDbEntity
100
AcDbMText
  8
Dimension
 62
256
370
13
  6
CONTINUOUS
 10
0.8
 20
7.0199999999999996
 30
0.0
 40
0.2
 41
100.0
 71
7
 72
2
  1
LV2c\~\~\~\~\~5/14/09
  7

 50
0.0
 73
1
 44
1.0
  0
ENDSEC
  0
SECTION
  2
OBJECTS
  0
DICTIONARY
  5
C
100
AcDbDictionary
280
0
281
1
  3
ACAD_GROUP
350
D
  3
ACAD_LAYOUT
350
1A
  3
ACAD_MLINESTYLE
350
17
  3
ACAD_PLOTSETTINGS
350
19
  3
ACAD_PLOTSTYLENAME
350
E
  3
AcDbVariableDictionary
350
16C
  0
DICTIONARY
  5
D
100
AcDbDictionary
280
0
281
1
  0
ACDBDICTIONARYWDFLT
  5
E
100
AcDbDictionary
281
1
  3
Normal
350
F
100
AcDbDictionaryWithDefault
340
F
  0
ACDBPLACEHOLDER
  5
F
  0
DICTIONARY
  5
17
100
AcDbDictionary
280
0
281
1
  3
Standard
350
18
  0
MLINESTYLE
  5
18
100
AcDbMlineStyle
  2
STANDARD
 70
0
  3

 62
256
 51
90.0
 52
90.0
 71
2
 49
0.5
 62
256
  6
BYLAYER
 49
-0.5
 62
256
  6
BYLAYER
  0
DICTIONARY
  5
19
100
AcDbDictionary
280
0
281
1
  0
DICTIONARY
  5
1A
100
AcDbDictionary
281
1
  3
Layout1
350
1E
  3
Layout2
350
26
  3
Model
350
22
  0
LAYOUT
  5
1E
100
AcDbPlotSettings
  1

  2
C:\Program Files\AutoCAD 2002\plotters\DWF ePlot (optimized for plotting).pc3
  4

  6

 40
0.0
 41
0.0
 42
0.0
 43
0.0
 44
0.0
 45
0.0
 46
0.0
 47
0.0
 48
0.0
 49
0.0
140
0.0
141
0.0
142
1.0
143
1.0
 70
688
 72
0
 73
0
 74
5
  7

 75
16
147
1.0
148
0.0
149
0.0
100
AcDbLayout
  1
Layout1
 70
1
 71
1
 10
0.0
 20
0.0
 11
420.0
 21
297.0
 12
0.0
 22
0.0
 32
0.0
 14
100000000000000000000.0
 24
100000000000000000000.0
 34
100000000000000000000.0
 15
-100000000000000000000.0
 25
-100000000000000000000.0
 35
-100000000000000000000.0
146
0.0
 13
0.0
 23
0.0
 33
0.0
 16
1.0
 26
0.0
 36
0.0
 17
0.0
 27
1.0
 37
0.0
 76
0
330
1B
  0
LAYOUT
  5
22
100
AcDbPlotSettings
  1

  2
C:\Program Files\AutoCAD 2002\plotters\DWF ePlot (optimized for plotting).pc3
  4

  6

 40
0.0
 41
0.0
 42
0.0
 43
0.0
 44
0.0
 45
0.0
 46
0.0
 47
0.0
 48
0.0
 49
0.0
140
0.0
141
0.0
142
1.0
143
1.0
 70
1712
 72
0
 73
0
 74
0
  7

 75
0
147
1.0
148
0.0
149
0.0
100
AcDbLayout
  1
Model
 70
1
 71
0
 10
0.0
 20
0.0
 11
12.0
 21
9.0
 12
0.0
 22
0.0
 32
0.0
 14
0.0
 24
0.0
 34
0.0
 15
0.0
 25
0.0
 35
0.0
146
0.0
 13
0.0
 23
0.0
 33
0.0
 16
1.0
 26
0.0
 36
0.0
 17
0.0
 27
1.0
 37
0.0
 76
0
330
1F
  0
LAYOUT
  5
26
100
AcDbPlotSettings
  1

  2
C:\Program Files\AutoCAD 2002\plotters\DWF ePlot (optimized for plotting).pc3
  4

  6

 40
0.0
 41
0.0
 42
0.0
 43
0.0
 44
0.0
 45
0.0
 46
0.0
 47
0.0
 48
0.0
 49
0.0
140
0.0
141
0.0
142
1.0
143
1.0
 70
688
 72
0
 73
0
 74
5
  7

 75
16
147
1.0
148
0.0
149
0.0
100
AcDbLayout
  1
Layout2
 70
1
 71
2
 10
0.0
 20
0.0
 11
12.0
 21
9.0
 12
0.0
 22
0.0
 32
0.0
 14
0.0
 24
0.0
 34
0.0
 15
0.0
 25
0.0
 35
0.0
146
0.0
 13
0.0
 23
0.0
 33
0.0
 16
1.0
 26
0.0
 36
0.0
 17
0.0
 27
1.0
 37
0.0
 76
0
330
23
  0
DICTIONARY
  5
16C
100
AcDbDictionary
281
1
  3
DIMASSOC
350
16E
  3
HIDETEXT
350
16D
  0
DICTIONARYVAR
  5
16D
100
DictionaryVariables
280
0
  1
2
  0
DICTIONARYVAR
  5
16E
100
DictionaryVariables
280
0
  1
1
  0
ENDSEC
  0
EOF
